<?xml version="1.0" encoding="UTF-8" standalone="no"?>
<!-- Created with Inkscape (http://www.inkscape.org/) -->

<svg
   version="1.1"
   id="svg1"
   width="573.21869"
   height="573.21869"
   viewBox="0 0 573.21869 573.21869"
   sodipodi:docname="KFUPM_Seal.ai"
   xmlns:inkscape="http://www.inkscape.org/namespaces/inkscape"
   xmlns:sodipodi="http://sodipodi.sourceforge.net/DTD/sodipodi-0.dtd"
   xmlns="http://www.w3.org/2000/svg"
   xmlns:svg="http://www.w3.org/2000/svg">
  <defs
     id="defs1">
    <clipPath
       clipPathUnits="userSpaceOnUse"
       id="clipPath5">
      <path
         d="M 0,429.914 H 429.914 V 0 H 0 Z"
         transform="translate(-204.2311,-290.2821)"
         id="path5" />
    </clipPath>
    <clipPath
       clipPathUnits="userSpaceOnUse"
       id="clipPath7">
      <path
         d="M 0,429.914 H 429.914 V 0 H 0 Z"
         transform="translate(-218.1442,-297.58881)"
         id="path7" />
    </clipPath>
    <clipPath
       clipPathUnits="userSpaceOnUse"
       id="clipPath9">
      <path
         d="M 0,429.914 H 429.914 V 0 H 0 Z"
         transform="translate(-218.88571,-302.25881)"
         id="path9" />
    </clipPath>
    <clipPath
       clipPathUnits="userSpaceOnUse"
       id="clipPath11">
      <path
         d="M 0,429.914 H 429.914 V 0 H 0 Z"
         transform="translate(-244.54101,-292.31921)"
         id="path11" />
    </clipPath>
    <clipPath
       clipPathUnits="userSpaceOnUse"
       id="clipPath13">
      <path
         d="M 0,429.914 H 429.914 V 0 H 0 Z"
         transform="translate(-232.23301,-285.02361)"
         id="path13" />
    </clipPath>
    <clipPath
       clipPathUnits="userSpaceOnUse"
       id="clipPath15">
      <path
         d="M 0,429.914 H 429.914 V 0 H 0 Z"
         transform="translate(-242.82031,-296.54961)"
         id="path15" />
    </clipPath>
    <clipPath
       clipPathUnits="userSpaceOnUse"
       id="clipPath17">
      <path
         d="M 0,429.914 H 429.914 V 0 H 0 Z"
         transform="translate(-269.70871,-272.17511)"
         id="path17" />
    </clipPath>
    <clipPath
       clipPathUnits="userSpaceOnUse"
       id="clipPath19">
      <path
         d="M 0,429.914 H 429.914 V 0 H 0 Z"
         transform="translate(-267.169,-286.1967)"
         id="path19" />
    </clipPath>
    <clipPath
       clipPathUnits="userSpaceOnUse"
       id="clipPath21">
      <path
         d="M 0,429.914 H 429.914 V 0 H 0 Z"
         transform="translate(-271.28781,-283.26941)"
         id="path21" />
    </clipPath>
    <clipPath
       clipPathUnits="userSpaceOnUse"
       id="clipPath23">
      <path
         d="M 0,429.914 H 429.914 V 0 H 0 Z"
         transform="translate(-264.1375,-281.67921)"
         id="path23" />
    </clipPath>
    <clipPath
       clipPathUnits="userSpaceOnUse"
       id="clipPath25">
      <path
         d="M 0,429.914 H 429.914 V 0 H 0 Z"
         transform="translate(-198.3693,-300.50121)"
         id="path25" />
    </clipPath>
    <clipPath
       clipPathUnits="userSpaceOnUse"
       id="clipPath27">
      <path
         d="M 0,429.914 H 429.914 V 0 H 0 Z"
         transform="translate(-185.0815,-279.9288)"
         id="path27" />
    </clipPath>
    <clipPath
       clipPathUnits="userSpaceOnUse"
       id="clipPath29">
      <path
         d="M 0,429.914 H 429.914 V 0 H 0 Z"
         transform="translate(-189.17421,-281.96981)"
         id="path29" />
    </clipPath>
    <clipPath
       clipPathUnits="userSpaceOnUse"
       id="clipPath31">
      <path
         d="M 0,429.914 H 429.914 V 0 H 0 Z"
         transform="translate(-199.13631,-291.44781)"
         id="path31" />
    </clipPath>
    <clipPath
       clipPathUnits="userSpaceOnUse"
       id="clipPath33">
      <path
         d="M 0,429.914 H 429.914 V 0 H 0 Z"
         transform="translate(-159.9771,-267.22601)"
         id="path33" />
    </clipPath>
    <clipPath
       clipPathUnits="userSpaceOnUse"
       id="clipPath35">
      <path
         d="M 0,429.914 H 429.914 V 0 H 0 Z"
         transform="translate(-147.78051,-273.64641)"
         id="path35" />
    </clipPath>
    <clipPath
       clipPathUnits="userSpaceOnUse"
       id="clipPath37">
      <path
         d="M 0,429.914 H 429.914 V 0 H 0 Z"
         transform="translate(-149.3524,-272.328)"
         id="path37" />
    </clipPath>
    <clipPath
       clipPathUnits="userSpaceOnUse"
       id="clipPath39">
      <path
         d="M 0,429.914 H 429.914 V 0 H 0 Z"
         transform="translate(-201.15481,-341.67521)"
         id="path39" />
    </clipPath>
    <clipPath
       clipPathUnits="userSpaceOnUse"
       id="clipPath41">
      <path
         d="M 0,429.914 H 429.914 V 0 H 0 Z"
         transform="translate(-242.01991,-342.09971)"
         id="path41" />
    </clipPath>
    <clipPath
       clipPathUnits="userSpaceOnUse"
       id="clipPath43">
      <path
         d="M 0,429.914 H 429.914 V 0 H 0 Z"
         transform="translate(-303.44961,-288.09231)"
         id="path43" />
    </clipPath>
    <clipPath
       clipPathUnits="userSpaceOnUse"
       id="clipPath45">
      <path
         d="M 0,429.914 H 429.914 V 0 H 0 Z"
         transform="translate(-131.06661,-291.3174)"
         id="path45" />
    </clipPath>
    <clipPath
       clipPathUnits="userSpaceOnUse"
       id="clipPath47">
      <path
         d="M 0,429.914 H 429.914 V 0 H 0 Z"
         transform="translate(-176.3634,-337.42971)"
         id="path47" />
    </clipPath>
    <clipPath
       clipPathUnits="userSpaceOnUse"
       id="clipPath49">
      <path
         d="M 0,429.914 H 429.914 V 0 H 0 Z"
         transform="translate(-177.8568,-332.90451)"
         id="path49" />
    </clipPath>
    <clipPath
       clipPathUnits="userSpaceOnUse"
       id="clipPath51">
      <path
         d="M 0,429.914 H 429.914 V 0 H 0 Z"
         transform="translate(-189.7554,-317.00261)"
         id="path51" />
    </clipPath>
    <clipPath
       clipPathUnits="userSpaceOnUse"
       id="clipPath53">
      <path
         d="M 0,429.914 H 429.914 V 0 H 0 Z"
         transform="translate(-103.4076,-234.6735)"
         id="path53" />
    </clipPath>
    <clipPath
       clipPathUnits="userSpaceOnUse"
       id="clipPath55">
      <path
         d="M 0,429.914 H 429.914 V 0 H 0 Z"
         transform="translate(-162.6475,-319.47561)"
         id="path55" />
    </clipPath>
    <clipPath
       clipPathUnits="userSpaceOnUse"
       id="clipPath57">
      <path
         d="M 0,429.914 H 429.914 V 0 H 0 Z"
         transform="translate(-133.815,-298.5906)"
         id="path57" />
    </clipPath>
    <clipPath
       clipPathUnits="userSpaceOnUse"
       id="clipPath59">
      <path
         d="M 0,429.914 H 429.914 V 0 H 0 Z"
         transform="translate(-150.9274,-324.44351)"
         id="path59" />
    </clipPath>
    <clipPath
       clipPathUnits="userSpaceOnUse"
       id="clipPath61">
      <path
         d="M 0,429.914 H 429.914 V 0 H 0 Z"
         transform="translate(-246.38451,-334.94561)"
         id="path61" />
    </clipPath>
    <clipPath
       clipPathUnits="userSpaceOnUse"
       id="clipPath63">
      <path
         d="M 0,429.914 H 429.914 V 0 H 0 Z"
         transform="translate(-90.5668,-228.39071)"
         id="path63" />
    </clipPath>
    <clipPath
       clipPathUnits="userSpaceOnUse"
       id="clipPath65">
      <path
         d="M 0,429.914 H 429.914 V 0 H 0 Z"
         transform="translate(-291.3607,-300.50121)"
         id="path65" />
    </clipPath>
    <clipPath
       clipPathUnits="userSpaceOnUse"
       id="clipPath67">
      <path
         d="M 0,429.914 H 429.914 V 0 H 0 Z"
         transform="translate(-323.84271,-225.6198)"
         id="path67" />
    </clipPath>
    <clipPath
       clipPathUnits="userSpaceOnUse"
       id="clipPath69">
      <path
         d="M 0,429.914 H 429.914 V 0 H 0 Z"
         transform="translate(-337.23121,-232.18551)"
         id="path69" />
    </clipPath>
    <clipPath
       clipPathUnits="userSpaceOnUse"
       id="clipPath71">
      <path
         d="M 0,429.914 H 429.914 V 0 H 0 Z"
         transform="translate(-319.57111,-291.01581)"
         id="path71" />
    </clipPath>
    <clipPath
       clipPathUnits="userSpaceOnUse"
       id="clipPath73">
      <path
         d="M 0,429.914 H 429.914 V 0 H 0 Z"
         transform="translate(-323.81291,-285.02361)"
         id="path73" />
    </clipPath>
    <clipPath
       clipPathUnits="userSpaceOnUse"
       id="clipPath75">
      <path
         d="M 0,429.914 H 429.914 V 0 H 0 Z"
         transform="translate(-327.79051,-250.57541)"
         id="path75" />
    </clipPath>
    <clipPath
       clipPathUnits="userSpaceOnUse"
       id="clipPath77">
      <path
         d="M 0,429.914 H 429.914 V 0 H 0 Z"
         transform="translate(-119.0304,-276.41691)"
         id="path77" />
    </clipPath>
    <clipPath
       clipPathUnits="userSpaceOnUse"
       id="clipPath79">
      <path
         d="M 0,429.914 H 429.914 V 0 H 0 Z"
         transform="translate(-316.06651,-133.4663)"
         id="path79" />
    </clipPath>
    <clipPath
       clipPathUnits="userSpaceOnUse"
       id="clipPath81">
      <path
         d="M 0,429.914 H 429.914 V 0 H 0 Z"
         transform="translate(-326.09561,-211.5987)"
         id="path81" />
    </clipPath>
    <clipPath
       clipPathUnits="userSpaceOnUse"
       id="clipPath83">
      <path
         d="M 0,429.914 H 429.914 V 0 H 0 Z"
         transform="translate(-339.71101,-173.6607)"
         id="path83" />
    </clipPath>
    <clipPath
       clipPathUnits="userSpaceOnUse"
       id="clipPath85">
      <path
         d="M 0,429.914 H 429.914 V 0 H 0 Z"
         transform="translate(-345.59531,-200.72021)"
         id="path85" />
    </clipPath>
    <clipPath
       clipPathUnits="userSpaceOnUse"
       id="clipPath87">
      <path
         d="M 0,429.914 H 429.914 V 0 H 0 Z"
         transform="translate(-330.08811,-150.9695)"
         id="path87" />
    </clipPath>
    <clipPath
       clipPathUnits="userSpaceOnUse"
       id="clipPath89">
      <path
         d="M 0,429.914 H 429.914 V 0 H 0 Z"
         transform="translate(-326.33071,-181.9917)"
         id="path89" />
    </clipPath>
    <clipPath
       clipPathUnits="userSpaceOnUse"
       id="clipPath91">
      <path
         d="M 0,429.914 H 429.914 V 0 H 0 Z"
         transform="translate(-307.45631,-170.6705)"
         id="path91" />
    </clipPath>
    <clipPath
       clipPathUnits="userSpaceOnUse"
       id="clipPath93">
      <path
         d="M 0,429.914 H 429.914 V 0 H 0 Z"
         transform="translate(-334.97441,-190.0211)"
         id="path93" />
    </clipPath>
    <clipPath
       clipPathUnits="userSpaceOnUse"
       id="clipPath95">
      <path
         d="M 0,429.914 H 429.914 V 0 H 0 Z"
         transform="translate(-113.92071,-202.99191)"
         id="path95" />
    </clipPath>
    <clipPath
       clipPathUnits="userSpaceOnUse"
       id="clipPath97">
      <path
         d="M 0,429.914 H 429.914 V 0 H 0 Z"
         transform="translate(-114.60591,-199.4877)"
         id="path97" />
    </clipPath>
    <clipPath
       clipPathUnits="userSpaceOnUse"
       id="clipPath99">
      <path
         d="M 0,429.914 H 429.914 V 0 H 0 Z"
         transform="translate(-85.4128,-200.94371)"
         id="path99" />
    </clipPath>
    <clipPath
       clipPathUnits="userSpaceOnUse"
       id="clipPath101">
      <path
         d="M 0,429.914 H 429.914 V 0 H 0 Z"
         transform="translate(-101.6164,-178.4726)"
         id="path101" />
    </clipPath>
    <clipPath
       clipPathUnits="userSpaceOnUse"
       id="clipPath103">
      <path
         d="M 0,429.914 H 429.914 V 0 H 0 Z"
         transform="translate(-279.35421,-134.6729)"
         id="path103" />
    </clipPath>
    <clipPath
       clipPathUnits="userSpaceOnUse"
       id="clipPath105">
      <path
         d="M 0,429.914 H 429.914 V 0 H 0 Z"
         transform="translate(-209.8693,-86.0655)"
         id="path105" />
    </clipPath>
    <clipPath
       clipPathUnits="userSpaceOnUse"
       id="clipPath107">
      <path
         d="M 0,429.914 H 429.914 V 0 H 0 Z"
         transform="translate(-273.68971,-99.643905)"
         id="path107" />
    </clipPath>
    <clipPath
       clipPathUnits="userSpaceOnUse"
       id="clipPath109">
      <path
         d="M 0,429.914 H 429.914 V 0 H 0 Z"
         transform="translate(-220.6285,-96.5751)"
         id="path109" />
    </clipPath>
    <clipPath
       clipPathUnits="userSpaceOnUse"
       id="clipPath111">
      <path
         d="M 0,429.914 H 429.914 V 0 H 0 Z"
         transform="translate(-234.89551,-100.80551)"
         id="path111" />
    </clipPath>
    <clipPath
       clipPathUnits="userSpaceOnUse"
       id="clipPath113">
      <path
         d="M 0,429.914 H 429.914 V 0 H 0 Z"
         transform="translate(-248.57421,-87.9612)"
         id="path113" />
    </clipPath>
    <clipPath
       clipPathUnits="userSpaceOnUse"
       id="clipPath115">
      <path
         d="M 0,429.914 H 429.914 V 0 H 0 Z"
         transform="translate(-290.4706,-107.0844)"
         id="path115" />
    </clipPath>
    <clipPath
       clipPathUnits="userSpaceOnUse"
       id="clipPath117">
      <path
         d="M 0,429.914 H 429.914 V 0 H 0 Z"
         transform="translate(-284.82511,-103.2896)"
         id="path117" />
    </clipPath>
    <clipPath
       clipPathUnits="userSpaceOnUse"
       id="clipPath119">
      <path
         d="M 0,429.914 H 429.914 V 0 H 0 Z"
         transform="translate(-255.24061,-89.853105)"
         id="path119" />
    </clipPath>
    <clipPath
       clipPathUnits="userSpaceOnUse"
       id="clipPath121">
      <path
         d="M 0,429.914 H 429.914 V 0 H 0 Z"
         transform="translate(-309.05811,-122.994)"
         id="path121" />
    </clipPath>
    <clipPath
       clipPathUnits="userSpaceOnUse"
       id="clipPath123">
      <path
         d="M 0,429.914 H 429.914 V 0 H 0 Z"
         transform="translate(-256.21621,-106.202)"
         id="path123" />
    </clipPath>
    <clipPath
       clipPathUnits="userSpaceOnUse"
       id="clipPath125">
      <path
         d="M 0,429.914 H 429.914 V 0 H 0 Z"
         transform="translate(-175.2945,-111.4715)"
         id="path125" />
    </clipPath>
    <clipPath
       clipPathUnits="userSpaceOnUse"
       id="clipPath127">
      <path
         d="M 0,429.914 H 429.914 V 0 H 0 Z"
         transform="translate(-140.9206,-145.041)"
         id="path127" />
    </clipPath>
    <clipPath
       clipPathUnits="userSpaceOnUse"
       id="clipPath129">
      <path
         d="M 0,429.914 H 429.914 V 0 H 0 Z"
         transform="translate(-147.12531,-102.7011)"
         id="path129" />
    </clipPath>
    <clipPath
       clipPathUnits="userSpaceOnUse"
       id="clipPath131">
      <path
         d="M 0,429.914 H 429.914 V 0 H 0 Z"
         transform="translate(-180.3741,-88.251802)"
         id="path131" />
    </clipPath>
    <clipPath
       clipPathUnits="userSpaceOnUse"
       id="clipPath133">
      <path
         d="M 0,429.914 H 429.914 V 0 H 0 Z"
         transform="translate(-158.91201,-113.6577)"
         id="path133" />
    </clipPath>
    <clipPath
       clipPathUnits="userSpaceOnUse"
       id="clipPath135">
      <path
         d="M 0,429.914 H 429.914 V 0 H 0 Z"
         transform="translate(-180.85851,-118.4616)"
         id="path135" />
    </clipPath>
    <clipPath
       clipPathUnits="userSpaceOnUse"
       id="clipPath137">
      <path
         d="M 0,429.914 H 429.914 V 0 H 0 Z"
         transform="translate(-149.937,-136.28561)"
         id="path137" />
    </clipPath>
    <clipPath
       clipPathUnits="userSpaceOnUse"
       id="clipPath139">
      <path
         d="M 0,429.914 H 429.914 V 0 H 0 Z"
         transform="translate(-143.4754,-142.26251)"
         id="path139" />
    </clipPath>
    <clipPath
       clipPathUnits="userSpaceOnUse"
       id="clipPath141">
      <path
         d="M 0,429.914 H 429.914 V 0 H 0 Z"
         transform="translate(-199.0246,-113.80271)"
         id="path141" />
    </clipPath>
    <clipPath
       clipPathUnits="userSpaceOnUse"
       id="clipPath143">
      <path
         d="M 0,429.914 H 429.914 V 0 H 0 Z"
         transform="translate(-152.0932,-134.36741)"
         id="path143" />
    </clipPath>
    <clipPath
       clipPathUnits="userSpaceOnUse"
       id="clipPath145">
      <path
         d="M 0,429.914 H 429.914 V 0 H 0 Z"
         transform="translate(-104.2531,-164.16431)"
         id="path145" />
    </clipPath>
    <clipPath
       clipPathUnits="userSpaceOnUse"
       id="clipPath147">
      <path
         d="M 0,429.914 H 429.914 V 0 H 0 Z"
         transform="translate(-102.7113,-148.3851)"
         id="path147" />
    </clipPath>
    <clipPath
       clipPathUnits="userSpaceOnUse"
       id="clipPath149">
      <path
         d="M 0,429.914 H 429.914 V 0 H 0 Z"
         transform="translate(-109.6084,-141.6855)"
         id="path149" />
    </clipPath>
    <clipPath
       clipPathUnits="userSpaceOnUse"
       id="clipPath151">
      <path
         d="M 0,429.914 H 429.914 V 0 H 0 Z"
         transform="translate(-106.1002,-170.5809)"
         id="path151" />
    </clipPath>
    <clipPath
       clipPathUnits="userSpaceOnUse"
       id="clipPath153">
      <path
         d="M 0,429.914 H 429.914 V 0 H 0 Z"
         transform="translate(-209.16921,-264.14961)"
         id="path153" />
    </clipPath>
    <clipPath
       clipPathUnits="userSpaceOnUse"
       id="clipPath155">
      <path
         d="M 0,429.914 H 429.914 V 0 H 0 Z"
         transform="translate(-210.05541,-254.08721)"
         id="path155" />
    </clipPath>
    <clipPath
       clipPathUnits="userSpaceOnUse"
       id="clipPath157">
      <path
         d="M 0,429.914 H 429.914 V 0 H 0 Z"
         transform="translate(-210.4165,-266.19821)"
         id="path157" />
    </clipPath>
    <clipPath
       clipPathUnits="userSpaceOnUse"
       id="clipPath159">
      <path
         d="M 0,429.914 H 429.914 V 0 H 0 Z"
         transform="translate(-203.25901,-274.22381)"
         id="path159" />
    </clipPath>
    <clipPath
       clipPathUnits="userSpaceOnUse"
       id="clipPath161">
      <path
         d="M 0,429.914 H 429.914 V 0 H 0 Z"
         transform="translate(-210.56191,-264.88331)"
         id="path161" />
    </clipPath>
    <clipPath
       clipPathUnits="userSpaceOnUse"
       id="clipPath163">
      <path
         d="M 0,429.914 H 429.914 V 0 H 0 Z"
         transform="translate(-211.47441,-254.5155)"
         id="path163" />
    </clipPath>
    <clipPath
       clipPathUnits="userSpaceOnUse"
       id="clipPath165">
      <path
         d="M 0,429.914 H 429.914 V 0 H 0 Z"
         transform="translate(-223.33221,-264.14961)"
         id="path165" />
    </clipPath>
    <clipPath
       clipPathUnits="userSpaceOnUse"
       id="clipPath167">
      <path
         d="M 0,429.914 H 429.914 V 0 H 0 Z"
         transform="translate(-222.4642,-254.08721)"
         id="path167" />
    </clipPath>
    <clipPath
       clipPathUnits="userSpaceOnUse"
       id="clipPath169">
      <path
         d="M 0,429.914 H 429.914 V 0 H 0 Z"
         transform="translate(-222.0844,-266.19821)"
         id="path169" />
    </clipPath>
    <clipPath
       clipPathUnits="userSpaceOnUse"
       id="clipPath171">
      <path
         d="M 0,429.914 H 429.914 V 0 H 0 Z"
         transform="translate(-229.2424,-274.22381)"
         id="path171" />
    </clipPath>
    <clipPath
       clipPathUnits="userSpaceOnUse"
       id="clipPath173">
      <path
         d="M 0,429.914 H 429.914 V 0 H 0 Z"
         transform="translate(-221.94301,-264.88331)"
         id="path173" />
    </clipPath>
    <clipPath
       clipPathUnits="userSpaceOnUse"
       id="clipPath175">
      <path
         d="M 0,429.914 H 429.914 V 0 H 0 Z"
         transform="translate(-221.09751,-254.5155)"
         id="path175" />
    </clipPath>
    <clipPath
       clipPathUnits="userSpaceOnUse"
       id="clipPath177">
      <path
         d="M 0,429.914 H 429.914 V 0 H 0 Z"
         transform="translate(-209.31831,-173.7873)"
         id="path177" />
    </clipPath>
    <clipPath
       clipPathUnits="userSpaceOnUse"
       id="clipPath179">
      <path
         d="M 0,429.914 H 429.914 V 0 H 0 Z"
         transform="translate(-234.20641,-183.7272)"
         id="path179" />
    </clipPath>
    <clipPath
       clipPathUnits="userSpaceOnUse"
       id="clipPath181">
      <path
         d="M 0,429.914 H 429.914 V 0 H 0 Z"
         transform="translate(-247.48321,-183.5781)"
         id="path181" />
    </clipPath>
    <clipPath
       clipPathUnits="userSpaceOnUse"
       id="clipPath183">
      <path
         d="M 0,429.914 H 429.914 V 0 H 0 Z"
         transform="translate(-247.48321,-183.86111)"
         id="path183" />
    </clipPath>
    <clipPath
       clipPathUnits="userSpaceOnUse"
       id="clipPath185">
      <path
         d="M 0,429.914 H 429.914 V 0 H 0 Z"
         transform="translate(-264.90441,-183.5781)"
         id="path185" />
    </clipPath>
    <clipPath
       clipPathUnits="userSpaceOnUse"
       id="clipPath187">
      <path
         d="M 0,429.914 H 429.914 V 0 H 0 Z"
         transform="translate(-264.856,-183.7272)"
         id="path187" />
    </clipPath>
    <clipPath
       clipPathUnits="userSpaceOnUse"
       id="clipPath189">
      <path
         d="M 0,429.914 H 429.914 V 0 H 0 Z"
         transform="translate(-252.28711,-183.5781)"
         id="path189" />
    </clipPath>
    <clipPath
       clipPathUnits="userSpaceOnUse"
       id="clipPath191">
      <path
         d="M 0,429.914 H 429.914 V 0 H 0 Z"
         transform="translate(-173.1792,-177.2919)"
         id="path191" />
    </clipPath>
    <clipPath
       clipPathUnits="userSpaceOnUse"
       id="clipPath193">
      <path
         d="M 0,429.914 H 429.914 V 0 H 0 Z"
         transform="translate(-191.5912,-175.9808)"
         id="path193" />
    </clipPath>
    <clipPath
       clipPathUnits="userSpaceOnUse"
       id="clipPath195">
      <path
         d="M 0,429.914 H 429.914 V 0 H 0 Z"
         transform="translate(-188.4108,-183.1239)"
         id="path195" />
    </clipPath>
    <clipPath
       clipPathUnits="userSpaceOnUse"
       id="clipPath197">
      <path
         d="M 0,429.914 H 429.914 V 0 H 0 Z"
         transform="translate(-170.9185,-174.2342)"
         id="path197" />
    </clipPath>
    <clipPath
       clipPathUnits="userSpaceOnUse"
       id="clipPath199">
      <path
         d="M 0,429.914 H 429.914 V 0 H 0 Z"
         transform="translate(-215.7052,-141.9723)"
         id="path199" />
    </clipPath>
  </defs>
  <sodipodi:namedview
     id="namedview1"
     pagecolor="#ffffff"
     bordercolor="#000000"
     borderopacity="0.25"
     inkscape:showpageshadow="2"
     inkscape:pageopacity="0.0"
     inkscape:pagecheckerboard="0"
     inkscape:deskcolor="#d1d1d1">
    <inkscape:page
       x="0"
       y="0"
       inkscape:label="1"
       id="page1"
       width="573.21869"
       height="573.21869"
       margin="68.892136 69.281334 69.681335 69.291069"
       bleed="0" />
  </sodipodi:namedview>
  <g
     id="layer-MC0"
     inkscape:groupmode="layer"
     inkscape:label="Layer 1">
    <path
       id="path1"
       d="m 0,0 h -135.027 l -95.479,-95.479 v -135.027 l 95.479,-95.478 H 0 l 95.479,95.478 v 135.027 z"
       style="fill:#00823e;fill-opacity:1;fill-rule:nonzero;stroke:none"
       transform="matrix(1.3333333,0,0,-1.3333333,376.632,69.6808)" />
    <path
       id="path2"
       d="M 0,0 -25.848,12.852 -26.683,10.949 -1.098,-2.475 Z"
       style="fill:#d9c659;fill-opacity:1;fill-rule:nonzero;stroke:none"
       transform="matrix(1.3333333,0,0,-1.3333333,443.1368,365.4756)" />
    <path
       id="path3"
       d="M 0,0 -84.839,-84.664 H -201.67 l -83.478,83.493 0.08,118.536 83.57,84.076 H -83.07 L -0.225,118.684 Z M -79.333,211.07 H -205.731 L -295.07,121.739 V -4.668 l 89.339,-89.343 H -79.333 L 10.01,-4.668 v 126.407 z"
       style="fill:#d9c659;fill-opacity:1;fill-rule:nonzero;stroke:none"
       transform="matrix(1.3333333,0,0,-1.3333333,476.654,365.04333)" />
    <path
       id="path4"
       d="M 0,0 C 3.444,0.45 5.526,0.877 9.656,0.877 V 3.062 C 9.618,5.697 8.413,6.998 5.224,6.864 c 0,0 -2.135,-0.595 -2.833,0.443 0,0 0.073,-0.736 -0.728,-1.766 -0.561,-0.717 -1.789,-1.453 -1.789,-1.453 0,0 2.845,0.584 3.543,0.584 1.342,0 4.08,1.025 3.974,-1.759 H 7.356 C 6.185,2.772 3.848,2.772 -0.347,2.036 Z"
       style="fill:#d9c659;fill-opacity:1;fill-rule:nonzero;stroke:none"
       transform="matrix(1.3333333,0,0,-1.3333333,272.30813,186.17587)"
       clip-path="url(#clipPath5)" />
    <path
       id="path6"
       d="m 0,0 h -0.564 l 0.061,-9.496 h -0.046 c -0.141,-3.211 -3.165,-1.75 -3.307,-1.617 1.503,-2.032 5.183,-1.75 5.355,1.766 L 1.956,1.304 C 1.956,1.304 1.327,0 0,0"
       style="fill:#d9c659;fill-opacity:1;fill-rule:nonzero;stroke:none"
       transform="matrix(1.3333333,0,0,-1.3333333,290.85893,176.4336)"
       clip-path="url(#clipPath7)" />
    <path
       id="path8"
       d="M 0,0 C 0.717,0 1.38,0.572 1.415,1.308 1.487,2.036 0.942,2.624 0.187,2.765 -0.557,2.765 -1.205,2.193 -1.243,1.453 -1.308,0.725 -0.74,0.137 0,0"
       style="fill:#d9c659;fill-opacity:1;fill-rule:nonzero;stroke:none"
       transform="matrix(1.3333333,0,0,-1.3333333,291.8476,170.20693)"
       clip-path="url(#clipPath9)" />
    <path
       id="path10"
       d="m 0,0 c -0.187,0 -0.347,0.16 -0.53,0.16 l -3.306,-8.916 h -0.046 c -1.228,-2.921 -3.57,-0.431 -3.65,-0.293 0.664,-2.475 4.168,-3.494 5.633,-0.287 L 2.296,0.45 C 2.296,0.45 1.27,-0.427 0,0"
       style="fill:#d9c659;fill-opacity:1;fill-rule:nonzero;stroke:none"
       transform="matrix(1.3333333,0,0,-1.3333333,326.05467,183.45973)"
       clip-path="url(#clipPath11)" />
    <path
       id="path12"
       d="M 0,0 C 0.774,0 1.388,0.442 1.422,1.319 1.468,2.055 0.881,2.631 0.16,2.631 -0.572,2.78 -1.236,2.189 -1.281,1.453 -1.3,0.587 -0.713,0 0,0"
       style="fill:#d9c659;fill-opacity:1;fill-rule:nonzero;stroke:none"
       transform="matrix(1.3333333,0,0,-1.3333333,309.644,193.1872)"
       clip-path="url(#clipPath13)" />
    <path
       id="path14"
       d="m 0,0 c 0,0 -0.934,-1.598 -3.573,-0.858 0,0 0.652,-0.881 0.316,-1.766 -0.099,-0.286 -0.721,-2.036 -1.346,-3.939 -3.093,1.03 -8.317,2.044 -10.975,2.494 0,0 1.129,1.159 1.674,2.33 0.984,2.04 0.553,4.374 0.553,4.374 -0.08,-1.171 -0.492,-5.404 -7.311,-8.313 0,0 4.378,0.289 17.554,-3.658 z"
       style="fill:#d9c659;fill-opacity:1;fill-rule:nonzero;stroke:none"
       transform="matrix(1.3333333,0,0,-1.3333333,323.7604,177.8192)"
       clip-path="url(#clipPath15)" />
    <path
       id="path16"
       d="M 0,0 0.694,0.583 C 1.22,1.178 1.636,1.178 2.2,0.732 L 3.417,-0.572 1.987,-2.033 Z M 6.323,-1.007 2.338,3.219 C 1.171,4.241 0.671,3.646 -0.645,2.334 l -2.234,-2.628 3.436,-3.207 -1.972,-1.895 h -0.076 c -2.227,-2.037 -3.387,1.026 -3.387,1.171 -0.377,-2.342 2.376,-4.668 4.931,-2.491 z"
       style="fill:#d9c659;fill-opacity:1;fill-rule:nonzero;stroke:none"
       transform="matrix(1.3333333,0,0,-1.3333333,359.6116,210.31853)"
       clip-path="url(#clipPath17)" />
    <path
       id="path18"
       d="M 0,0 C 0.721,0 1.342,0.58 1.342,1.316 1.388,2.044 0.751,2.628 0.038,2.772 -0.74,2.772 -1.32,2.185 -1.365,1.316 -1.365,0.58 -0.74,0 0,0"
       style="fill:#d9c659;fill-opacity:1;fill-rule:nonzero;stroke:none"
       transform="matrix(1.3333333,0,0,-1.3333333,356.22533,191.62307)"
       clip-path="url(#clipPath19)" />
    <path
       id="path20"
       d="m 0,0 c 0.759,0 1.384,0.595 1.384,1.312 0,0.747 -0.587,1.327 -1.346,1.327 -0.732,0 -1.357,-0.58 -1.357,-1.327 C -1.319,0.595 -0.728,0 0,0"
       style="fill:#d9c659;fill-opacity:1;fill-rule:nonzero;stroke:none"
       transform="matrix(1.3333333,0,0,-1.3333333,361.71707,195.52613)"
       clip-path="url(#clipPath21)" />
    <path
       id="path22"
       d="M 0,0 0.492,0.858 C 0.938,1.453 1.163,1.453 1.789,1.007 L 3.203,0 2.036,-1.613 Z m 1.952,3.203 c -1.304,0.87 -1.99,0.729 -3.05,-0.869 l -1.793,-2.78 3.684,-2.761 -1.007,-1.323 c -1.453,1.022 -5.991,4.084 -8.256,5.388 l 5.579,10.091 c 0,0 -1.666,-1.034 -4.05,-0.595 0,0 0.736,-0.298 0.309,-1.019 -0.122,-0.144 -5.152,-10.079 -5.205,-10.22 -1.236,-2.193 -2.982,-1.75 -3.825,-1.315 -1.705,0.884 -1.903,2.49 -1.674,3.504 0.217,1.03 0.625,2.769 3.462,4.096 0,0 0.431,-0.736 1.324,-0.16 0.82,0.591 1.094,2.048 1.094,2.048 -1.251,-0.725 -5.545,-2.769 -6.494,-5.404 -0.992,-2.628 0.423,-4.962 2.074,-5.549 0.957,-0.431 3.943,-1.449 5.721,1.617 l 0.617,1.014 c 2.906,-1.601 5.667,-3.195 9.71,-6.574 L 6.243,0 Z"
       style="fill:#d9c659;fill-opacity:1;fill-rule:nonzero;stroke:none"
       transform="matrix(1.3333333,0,0,-1.3333333,352.18333,197.6464)"
       clip-path="url(#clipPath23)" />
    <path
       id="path24"
       d="M 0,0 C 0.728,0 1.281,0.74 1.235,1.457 1.171,2.185 0.519,2.78 -0.214,2.631 -0.988,2.631 -1.525,1.895 -1.453,1.171 -1.423,0.439 -0.763,0 0,0"
       style="fill:#d9c659;fill-opacity:1;fill-rule:nonzero;stroke:none"
       transform="matrix(1.3333333,0,0,-1.3333333,264.4924,172.5504)"
       clip-path="url(#clipPath25)" />
    <path
       id="path26"
       d="M 0,0 C 0.736,0 1.285,0.713 1.247,1.445 1.178,2.174 0.507,2.757 -0.21,2.757 -0.934,2.608 -1.537,2.04 -1.449,1.304 -1.384,0.435 -0.759,0 0,0"
       style="fill:#d9c659;fill-opacity:1;fill-rule:nonzero;stroke:none"
       transform="matrix(1.3333333,0,0,-1.3333333,246.77533,199.98027)"
       clip-path="url(#clipPath27)" />
    <path
       id="path28"
       d="M 0,0 C 0.717,0 1.274,0.713 1.235,1.445 1.174,2.185 0.519,2.757 -0.217,2.612 -0.992,2.612 -1.537,1.895 -1.468,1.163 -1.419,0.423 -0.763,-0.141 0,0"
       style="fill:#d9c659;fill-opacity:1;fill-rule:nonzero;stroke:none"
       transform="matrix(1.3333333,0,0,-1.3333333,252.23227,197.25893)"
       clip-path="url(#clipPath29)" />
    <path
       id="path30"
       d="m 0,0 c -2.147,-0.431 -4.267,-1.014 -4.267,-1.014 l -4.824,5.098 c 0,0 -0.725,1.018 -2.083,0.877 -0.877,-0.133 -2.436,-1.018 -3.169,-1.598 -0.804,-0.583 -1.384,-1.616 -0.625,-2.49 l 3.733,-4.229 c -3.108,-1.014 -5.811,-2.479 -8.248,-3.649 0,0 0.248,1.609 0,2.772 -0.45,2.338 -2.201,3.802 -2.201,3.802 0.66,-0.885 2.811,-4.542 -0.823,-10.949 0,0 3.828,3.2 15.052,7.303 l -5.454,5.824 c 0.29,0.446 1.198,1.033 2.002,1.033 l 5.686,-6.136 c 2.014,0.431 5.183,1.171 7.593,1.609 l -1.35,8.615 c 0,0 -0.328,-1.464 -1.255,-2.04 -1.014,-0.298 -1.914,-0.744 -1.914,-0.744 0,0 1.186,0.591 1.632,-1.453 z"
       style="fill:#d9c659;fill-opacity:1;fill-rule:nonzero;stroke:none"
       transform="matrix(1.3333333,0,0,-1.3333333,265.51507,184.6216)"
       clip-path="url(#clipPath31)" />
    <path
       id="path32"
       d="M 0,0 C -0.698,0.133 -1.167,0.721 -1.136,1.3 -1.098,2.029 -0.507,2.475 0.183,2.475 0.839,2.475 1.35,1.888 1.27,1.159 1.239,0.419 0.652,0 0,0 m 14.087,11.376 h -1.75 c -1.537,0 -1.823,1.029 -1.823,1.029 -0.16,-1.029 -1.43,-1.617 -2.708,-1.331 -1.056,0.172 -1.861,1.331 -1.929,2.792 -0.042,1.739 1.529,2.921 2.738,2.322 -0.149,-0.583 0.213,-1.163 0.575,-1.163 0.473,-0.149 1.164,0 1.129,0.732 C 10.251,16.49 9.595,16.638 9.564,16.638 7.078,17.218 4.813,15.46 4.702,13.42 4.622,11.524 5.918,9.629 7.665,9.629 6.704,8.893 5.8,8.169 5.03,7.432 l -7.955,9.058 c 0,0 0.301,-1.614 -0.828,-3.352 0,0 0.428,0.43 0.893,-0.153 C -2.494,12.55 1.35,8.462 3.459,6.124 2.692,5.392 2.113,4.801 1.678,4.374 1.27,4.511 0.839,4.656 0.366,4.656 -1.533,4.801 -3.219,3.341 -3.364,1.449 -3.436,0.721 -3.219,0.133 -2.898,-0.446 -3.325,-1.03 -3.829,-1.766 -4.275,-2.197 l -9.522,7.299 c 0,0 0.579,-1.613 -0.187,-3.497 0,0 0.328,0.588 0.919,0.142 0.614,-0.588 9.194,-6.869 9.194,-6.869 l 0.435,0.588 c 0.111,0 0.217,0.152 0.252,0.152 0.259,0.29 1.09,1.457 1.903,2.468 0.331,-0.141 0.697,-0.283 1.086,-0.283 1.911,-0.145 3.547,1.316 3.696,3.219 0.072,0.583 -0.069,1.171 -0.362,1.743 3.866,3.932 8.534,7.158 10.948,8.611"
       style="fill:#d9c659;fill-opacity:1;fill-rule:nonzero;stroke:none"
       transform="matrix(1.3333333,0,0,-1.3333333,213.3028,216.91733)"
       clip-path="url(#clipPath33)" />
    <path
       id="path34"
       d="m 0,0 c 0,0 3.363,2.174 4.21,5.106 h 0.568 c 0,0 0.187,-1.464 -1.373,-3.215 C 1.865,0.145 0,0 0,0"
       style="fill:#d9c659;fill-opacity:1;fill-rule:nonzero;stroke:none"
       transform="matrix(1.3333333,0,0,-1.3333333,197.04067,208.3568)"
       clip-path="url(#clipPath35)" />
    <path
       id="path36"
       d="m 0,0 c 0,0 3.363,2.33 4.21,5.255 h 0.568 c 0,0 0.145,-1.602 -1.384,-3.215 C 1.853,0.29 0,0 0,0"
       style="fill:#d9c659;fill-opacity:1;fill-rule:nonzero;stroke:none"
       transform="matrix(1.3333333,0,0,-1.3333333,199.13653,210.11467)"
       clip-path="url(#clipPath37)" />
    <path
       id="path38"
       d="M 0,0 C -0.16,1.155 0.839,1.155 0.839,1.155 -2.25,1.602 -3.733,3.646 -3.733,3.646 l 2.848,-20.727 c 0.111,-0.732 -0.362,-1.319 -1.026,-1.479 -0.739,-0.13 -1.353,0.301 -1.46,1.037 L -6.807,3.055 c 0,0 -0.87,-2.342 -3.604,-3.787 0,0 0.911,0.423 1.129,-0.736 0.065,-0.435 1.056,-5.557 1.899,-10.068 -1.644,-0.301 -3.28,-0.724 -4.813,-1.174 l -1.395,6.57 c 0,0 -0.725,-2.479 -3.353,-4.095 0,0 0.87,0.438 1.133,-0.729 0.107,-0.438 0.397,-1.609 0.618,-2.475 -1.278,-0.435 -2.631,-0.728 -3.798,-1.022 l -1.789,6.27 c 0,0 -0.58,-2.319 -3.131,-4.069 0,0 0.835,0.423 1.163,-0.74 0.138,-0.439 0.923,-2.487 0.923,-2.487 -1.186,-0.278 -2.387,-0.576 -3.413,-1.022 l -2.082,5.999 c 0,0 -0.503,-2.345 -2.99,-4.241 0,0 0.877,0.446 1.236,-0.587 0.08,-0.29 3.836,-10.365 3.836,-10.365 0.423,-1.167 -0.057,-2.78 -2.219,-3.066 -0.294,0 -0.591,0.152 -0.881,0.286 0.587,-0.427 1.205,-0.576 1.868,-0.576 2.227,0 4.783,1.754 3.936,4.679 l -1.636,4.805 c 5.179,2.052 11.276,3.665 17.363,4.824 0.377,-1.899 0.702,-3.207 0.702,-3.207 0.297,-1.762 1.746,-3.066 3.455,-3.36 0.961,0 1.288,-1.323 1.288,-1.323 0,0.725 0.412,1.468 0.656,1.766 1.675,0.576 2.704,2.185 2.586,3.935 L 1.842,-17.081 C 1.842,-17.081 0.099,-0.732 0,0"
       style="fill:#d9c659;fill-opacity:1;fill-rule:nonzero;stroke:none"
       transform="matrix(1.3333333,0,0,-1.3333333,268.2064,117.65173)"
       clip-path="url(#clipPath39)" />
    <path
       id="path40"
       d="M 0,0 C 1.03,0 1.823,0.877 1.823,1.895 1.823,2.933 1.03,3.649 0,3.649 -0.995,3.649 -1.827,2.933 -1.827,1.895 -1.827,0.877 -0.995,0 0,0"
       style="fill:#d9c659;fill-opacity:1;fill-rule:nonzero;stroke:none"
       transform="matrix(1.3333333,0,0,-1.3333333,322.6932,117.08573)"
       clip-path="url(#clipPath41)" />
    <path
       id="path42"
       d="m 0,0 -1.804,2.341 12.955,11.376 c 0,0 -0.744,-2.334 0.45,-5.259 0,0 -0.473,0.877 -1.354,0.153 C 9.412,7.886 0,0 0,0"
       style="fill:#d9c659;fill-opacity:1;fill-rule:nonzero;stroke:none"
       transform="matrix(1.3333333,0,0,-1.3333333,404.59947,189.0956)"
       clip-path="url(#clipPath43)" />
    <path
       id="path44"
       d="M 0,0 -1.899,-2.349 -15.071,9.034 c 0,0 2.437,-0.431 5.141,1.175 0,0 -0.759,-0.588 0.072,-1.465 z"
       style="fill:#d9c659;fill-opacity:1;fill-rule:nonzero;stroke:none"
       transform="matrix(1.3333333,0,0,-1.3333333,174.75547,184.79547)"
       clip-path="url(#clipPath45)" />
    <path
       id="path46"
       d="M 0,0 C 0.984,0 1.781,0.881 1.781,1.895 1.781,2.925 0.984,3.657 0,3.657 -0.995,3.657 -1.781,2.925 -1.781,1.895 -1.781,0.881 -0.995,0 0,0"
       style="fill:#d9c659;fill-opacity:1;fill-rule:nonzero;stroke:none"
       transform="matrix(1.3333333,0,0,-1.3333333,235.1512,123.3124)"
       clip-path="url(#clipPath47)" />
    <path
       id="path48"
       d="m 0,0 c 0.988,0 1.796,0.725 1.796,1.747 0,1.029 -0.808,1.91 -1.796,1.91 -0.988,0 -1.796,-0.881 -1.796,-1.91 C -1.796,0.725 -0.988,0 0,0"
       style="fill:#d9c659;fill-opacity:1;fill-rule:nonzero;stroke:none"
       transform="matrix(1.3333333,0,0,-1.3333333,237.1424,129.346)"
       clip-path="url(#clipPath49)" />
    <path
       id="path50"
       d="M 0,0 C 0.988,0 1.754,0.717 1.754,1.75 1.754,2.757 0.988,3.649 0,3.649 -0.98,3.649 -1.792,2.757 -1.792,1.75 -1.792,0.717 -0.98,0 0,0"
       style="fill:#d9c659;fill-opacity:1;fill-rule:nonzero;stroke:none"
       transform="matrix(1.3333333,0,0,-1.3333333,253.0072,150.54853)"
       clip-path="url(#clipPath51)" />
    <path
       id="path52"
       d="M 0,0 C 0.847,5.251 1.354,7.581 3.139,13.565 L 0.065,14.59 c -2.586,0.584 -6.845,-0.293 -7.807,-4.37 0,0 -0.469,-3.809 -1.891,-3.966 0,0 0.946,-0.282 2.048,-1.876 0.724,-1.018 1.19,-3.219 1.19,-3.219 0,0 0.85,4.237 1.094,5.252 0.606,1.899 0.606,6.429 4.496,4.812 C -1.243,9.473 -2.231,6.857 -3.253,0.564 Z"
       style="fill:#d9c659;fill-opacity:1;fill-rule:nonzero;stroke:none"
       transform="matrix(1.3333333,0,0,-1.3333333,137.8768,260.32067)"
       clip-path="url(#clipPath53)" />
    <path
       id="path54"
       d="m 0,0 c -0.526,0.881 -0.706,1.609 -0.442,2.338 0.24,0.591 1.704,1.46 1.704,1.46 l 1.202,-2.62 z m 2.254,9.488 c 0,0 -0.26,-2.04 -1.896,-2.914 C -3.585,4.679 -3.978,1.743 -2.891,-0.58 L -1.03,-4.225 3.852,-1.754 5.465,-5.255 5.491,-5.4 c 1.69,-3.791 -2.871,-3.936 -3.13,-3.791 3.062,-1.617 7.409,0.874 5.506,5.255 z"
       style="fill:#d9c659;fill-opacity:1;fill-rule:nonzero;stroke:none"
       transform="matrix(1.3333333,0,0,-1.3333333,216.86333,147.2512)"
       clip-path="url(#clipPath55)" />
    <path
       id="path56"
       d="m 0,0 c -0.77,0.751 -1.171,1.331 -1.144,2.052 0.049,0.736 1.209,2.044 1.209,2.044 L 1.998,2.052 Z m -0.74,9.789 c 0,0 0.397,-2.032 -0.915,-3.356 C -4.824,3.367 -4.321,0.45 -2.559,-1.445 L 0.328,-4.363 4.195,-0.275 6.815,-3.2 H 6.853 C 9.66,-6.414 5.35,-8.012 5.022,-8.012 c 3.436,-0.446 6.788,3.203 3.646,6.849 z"
       style="fill:#d9c659;fill-opacity:1;fill-rule:nonzero;stroke:none"
       transform="matrix(1.3333333,0,0,-1.3333333,178.42,175.09787)"
       clip-path="url(#clipPath57)" />
    <path
       id="path58"
       d="M 0,0 C -0.587,1.022 0.316,1.323 0.316,1.323 -2.67,0.58 -4.824,1.747 -4.824,1.747 L 2.41,-10.369 c -1.907,-1.167 -4.832,-3.341 -7.737,-5.537 0,0 -0.47,2.624 -1.171,3.642 -1.175,1.754 -3.181,2.334 -3.181,2.334 1.171,-1.171 4.306,-4.962 1.282,-12.406 0,0 2.886,3.204 14.952,10.8 0,0 -5.972,10.506 -6.555,11.536"
       style="fill:#d9c659;fill-opacity:1;fill-rule:nonzero;stroke:none"
       transform="matrix(1.3333333,0,0,-1.3333333,201.23653,140.62733)"
       clip-path="url(#clipPath59)" />
    <path
       id="path60"
       d="M 0,0 C 0.271,1.026 0.515,1.617 1.178,2.052 2.177,2.483 3.634,1.899 3.634,1.899 L 2.833,-0.873 Z m -10.857,-4.519 -3.062,0.587 0.499,4.664 c 1.144,-0.431 2.086,-1.3 2.517,-2.196 0.477,-1.156 0.046,-3.055 0.046,-3.055 m -5.884,1.014 -3.024,0.29 c 0.175,2.189 1.35,4.241 3.584,4.241 z m -0.839,-7.287 c 0,0 -0.145,-1.041 -1.343,-1.041 -0.865,0 -1.327,1.331 -1.327,1.331 l 0.16,4.072 2.99,-0.282 z M 7.795,5.709 c 0,0 -1.472,-1.468 -3.215,-0.881 C 0.305,5.842 -1.876,3.955 -2.544,1.335 l -0.873,-3.955 5.362,-1.312 -2.117,-7.444 c 0,0 -0.362,-2.768 -1.815,-2.486 -1.43,0.435 -0.633,2.929 -0.633,2.929 l 1.018,4.503 c 0,0 -5.831,1.324 -6.67,1.472 0,0 0.877,3.642 -1.102,6.129 -1.804,2.482 -3.569,2.482 -3.569,2.482 l 0.911,6.724 c 0,0 -1.312,-3.223 -5.037,-3.074 H -17.1 c -0.042,0 -0.042,0 0,0 0.546,-0.149 1.648,-0.423 1.419,-2.04 l -0.145,-1.308 c 0,0 -2.304,0.286 -4.637,-1.762 -1.972,-1.892 -2.079,-5.263 -2.079,-5.263 0,0 -1.685,0.149 -2.185,0.149 l 0.031,2.498 c -0.172,2.04 -2.048,4.378 -5.69,4.503 0,0 -4.058,-0.427 -5.034,1.034 0,0 0,-1.316 -0.877,-2.193 -0.942,-1.022 -2.437,-1.586 -2.437,-1.586 0,0 4.077,0.282 5.095,0.137 3.436,-0.301 6.25,0.721 6.208,-4.092 0,-0.149 -11.234,-0.45 -11.234,-0.45 l 0.171,-3.203 c 0,0 10.411,0.743 15.807,0.148 v -4.088 c 0,0 0.145,-3.802 3.459,-4.08 3.84,-0.294 4.268,3.36 4.268,3.36 l 0.56,3.931 c 1.998,-0.434 6.231,-1.17 9.416,-1.895 l -0.45,-2.776 c 0,0 -0.759,-3.364 2.238,-4.664 0.332,-0.439 0.29,-1.03 0.179,-1.312 0,0 0.397,0.717 1.03,1.014 2.292,-0.297 3.222,1.026 3.821,3.063 0,0 5.633,18.259 5.961,19.281"
       style="fill:#d9c659;fill-opacity:1;fill-rule:nonzero;stroke:none"
       transform="matrix(1.3333333,0,0,-1.3333333,328.51267,126.62453)"
       clip-path="url(#clipPath61)" />
    <path
       id="path62"
       d="M 0,0 C 2.109,-1.018 2.91,-2.044 2.91,-2.044 5.255,0 8.859,-1.32 8.935,-4.088 9,-7.593 6.227,-7.883 5.354,-7.883 c -0.984,0 -2.517,-0.141 -5.88,3.364 -3.677,3.646 -5.351,2.475 -6.045,1.747 h 0.035 C -6.761,-3.07 -6.903,-3.36 -6.903,-3.791 -6.864,-4.687 -6.14,-5.4 -5.217,-5.4 c 0.866,0.145 1.598,0.881 1.56,1.75 0,0.29 -0.107,0.431 -0.221,0.721 0.804,-0.141 1.17,-0.431 2.696,-2.193 3.26,-3.485 5.518,-4.221 7.162,-4.08 2.299,0 5.441,2.185 5.361,5.842 C 11.231,1.022 6.967,2.479 5.255,2.33 1.75,2.33 0,0 0,0"
       style="fill:#d9c659;fill-opacity:1;fill-rule:nonzero;stroke:none"
       transform="matrix(1.3333333,0,0,-1.3333333,120.75573,268.69773)"
       clip-path="url(#clipPath63)" />
    <path
       id="path64"
       d="m 0,0 c -1.064,0 -1.903,0.877 -1.903,2.044 0,1.022 0.885,1.907 1.937,1.907 C 1.102,3.951 1.96,3.066 1.96,1.895 1.933,0.877 1.102,0 0,0 m 14.297,6.708 c 0,0 0.812,-0.576 -0.027,-1.449 C 13.05,4.077 7.2,-2.055 7.2,-2.055 6.7,-1.609 5.686,-0.58 4.416,0.439 4.561,0.877 4.675,1.457 4.675,1.895 4.694,2.921 3.913,4.664 3.913,4.664 3.421,5.408 3.97,6.418 3.97,6.418 c 0,0 -0.759,-0.736 -1.896,-0.286 -0.617,0.286 -1.273,0.435 -2.005,0.576 -0.877,0 -1.663,-0.29 -2.33,-0.721 -0.839,0.58 -3.81,2.769 -3.81,2.769 l 8.447,11.825 c 0,0 -2.273,-1.025 -5.183,0 0,0 0.866,-0.43 0.252,-1.323 -0.511,-0.724 -8.798,-13.126 -8.798,-13.126 -0.366,-0.591 -1.163,-0.873 -1.758,-0.45 -0.572,0.45 -0.751,1.186 -0.347,1.754 l 4.256,6.868 c 0.972,1.312 1.159,4.23 -1.789,5.995 -2.394,1.453 -13.057,6.853 -19.014,9.038 l 15.685,-3.359 c 1.976,-0.569 2.353,-1.312 2.456,-1.598 0,0 0.77,2.627 5.11,2.334 l -25.485,5.533 -1.556,-4.515 c 4.702,-1.594 13.213,-5.545 18.289,-8.176 2.254,-1.305 4.958,-2.193 2.471,-5.98 0,0 -10.132,6.426 -20.474,10.365 0,0 -2.182,0.584 -2.285,1.747 0,0 -0.495,-2.914 -4.683,-2.471 0,0 12.44,-3.36 25.913,-12.127 l -1.243,-2.041 c -0.961,-1.613 -0.763,-3.508 0.336,-4.972 0.64,-0.584 0.141,-1.747 0.141,-1.747 0.427,0.591 1.205,0.736 1.567,0.736 1.644,-0.736 3.314,-0.286 4.405,1.167 l 1.697,2.334 c 0,0 0.659,-0.58 1.636,-1.449 0.373,-0.305 0.987,-0.736 1.754,-1.324 -0.225,-0.583 -0.37,-1.163 -0.37,-1.75 0,-2.624 2.086,-4.664 4.641,-4.664 0.881,0 1.651,0.134 2.33,0.565 0.953,-0.859 1.64,-1.45 1.689,-1.45 L 6.811,-6.422 19.38,5.682 c 0,0 -2.368,-0.564 -5.083,1.026"
       style="fill:#d9c659;fill-opacity:1;fill-rule:nonzero;stroke:none"
       transform="matrix(1.3333333,0,0,-1.3333333,388.48093,172.5504)"
       clip-path="url(#clipPath65)" />
    <path
       id="path66"
       d="M 0,0 C 0.972,0 1.75,0.873 1.75,1.895 1.75,2.913 0.972,3.646 0,3.646 -0.984,3.646 -1.785,2.913 -1.785,1.895 -1.785,0.873 -0.984,0 0,0"
       style="fill:#d9c659;fill-opacity:1;fill-rule:nonzero;stroke:none"
       transform="matrix(1.3333333,0,0,-1.3333333,431.79027,272.39227)"
       clip-path="url(#clipPath67)" />
    <path
       id="path68"
       d="m 0,0 c -1.026,0.728 -2.296,2.322 -2.296,2.322 0,0 0.702,-3.935 0.771,-4.946 0.137,-2.189 1.605,-6.292 -2.598,-6.292 v 0.153 c -0.629,7.447 -2.623,17.225 -2.623,17.225 -0.046,0.141 13.534,3.501 13.534,3.501 0,0 -2.33,0.885 -3.909,3.497 0,0 0.088,-0.999 -0.972,-1.3 l -12.486,-3.204 c 0.221,-0.885 0.465,-1.765 0.732,-2.929 1.03,-4.381 2.151,-10.803 2.803,-20.429 l 3.2,0.142 c 2.677,0.282 6.296,2.33 5.827,6.57 0,0 -0.915,2.914 0.522,4.668 0,0 -0.945,-0.145 -2.505,1.022"
       style="fill:#d9c659;fill-opacity:1;fill-rule:nonzero;stroke:none"
       transform="matrix(1.3333333,0,0,-1.3333333,449.6416,263.638)"
       clip-path="url(#clipPath69)" />
    <path
       id="path70"
       d="M 0,0 C 0.98,0 1.796,0.717 1.823,1.754 1.85,2.769 1.094,3.653 0.099,3.653 -0.87,3.653 -1.667,2.91 -1.716,1.903 -1.739,0.873 -0.988,0 0,0"
       style="fill:#d9c659;fill-opacity:1;fill-rule:nonzero;stroke:none"
       transform="matrix(1.3333333,0,0,-1.3333333,426.0948,185.1976)"
       clip-path="url(#clipPath71)" />
    <path
       id="path72"
       d="M 0,0 C 0.969,0 1.781,0.728 1.819,1.754 1.849,2.78 1.09,3.649 0.095,3.649 -0.896,3.649 -1.72,2.917 -1.72,1.895 -1.754,0.885 -0.999,0 0,0"
       style="fill:#d9c659;fill-opacity:1;fill-rule:nonzero;stroke:none"
       transform="matrix(1.3333333,0,0,-1.3333333,431.75053,193.1872)"
       clip-path="url(#clipPath73)" />
    <path
       id="path74"
       d="M 0,0 -0.992,2.917 C 0.061,3.512 0.827,3.653 1.895,3.055 2.99,2.483 3.394,1.022 3.394,1.022 Z m -16.905,32.987 c 1.864,1.163 3.245,0.152 4.221,-1.457 l -2.101,-1.598 z m 11.6,-12.108 c 0,0 1.72,-0.145 2.712,-2.2 0.835,-1.896 0.175,-3.345 0.175,-3.345 0,0 -0.858,0.87 -3.215,1.594 0,0 0.511,1.327 0.328,3.951 M 6.041,1.613 c -1.045,2.773 -3.822,6.113 -7.948,4.225 -0.427,1.171 -3.249,7.3 -3.825,8.756 1.697,-0.141 4.382,-2.479 4.382,-2.479 0,0 1.899,1.762 1.48,4.382 0,0 0.625,0.877 0.495,1.602 -0.351,1.891 0.591,2.338 0.591,2.338 0,0 -1.086,-0.447 -2.299,1.014 -0.423,0.45 -1.407,0.591 -1.407,0.591 -2.704,2.49 -5.179,1.175 -5.179,1.175 0.503,-1.911 -0.294,-4.374 -0.294,-4.374 -3.142,5.396 -5.026,8.45 -5.026,8.45 l 3.432,2.342 5.675,3.653 c 0,0 -2.441,0 -4.782,2.048 0,0 0.446,-0.889 -0.511,-1.468 -0.18,-0.149 -0.504,-0.286 -0.939,-0.58 -2.78,3.505 -5.941,5.103 -11.104,0.862 3.401,-4.359 8.294,-12.55 11.135,-17.802 l 1.663,-0.724 -0.393,-1.747 c 4.13,-8.328 6.906,-17.374 6.906,-17.374 L 8.5,-0.439 c 0,0 -1.8,0.298 -2.459,2.052"
       style="fill:#d9c659;fill-opacity:1;fill-rule:nonzero;stroke:none"
       transform="matrix(1.3333333,0,0,-1.3333333,437.054,239.11813)"
       clip-path="url(#clipPath75)" />
    <path
       id="path76"
       d="m 0,0 c -1.018,0 -1.865,0.873 -1.865,1.884 0,1.03 0.866,1.91 1.907,1.91 1.045,0 1.891,-0.88 1.891,-1.91 C 1.891,0.873 1.045,0 0,0 m -10.586,-9.191 c -1.03,-0.446 -1.678,-1.315 -1.678,-1.315 -0.622,1.449 -0.37,2.765 0.103,3.642 0.473,0.869 1.716,2.048 2.86,2.181 0,0 -0.157,-1.167 -0.084,-2.181 0.084,-0.721 0.221,-1.747 0.221,-1.747 0,0 -0.839,-0.301 -1.422,-0.58 M 7.814,9.927 -5.331,21.173 c 0,0 0.797,-2.353 -0.363,-5.271 0,0 0.473,0.874 1.339,0.16 L 3.573,9.633 1.087,6.414 h 0.068 c -0.354,0 -0.728,0.153 -1.079,0.153 -1.285,0 -2.421,-0.591 -3.249,-1.304 -0.56,-0.305 -1.426,0 -1.426,0 0,0 0.621,-0.744 0.435,-1.469 -0.26,-0.579 -0.408,-1.17 -0.408,-1.91 0,-1.011 0.366,-2.033 0.987,-2.761 -0.721,-1.316 -3.398,-5.698 -3.424,-5.553 -0.111,1.183 0.145,3.936 0.145,3.936 -1.61,0.892 -3.692,0.446 -5.358,-1.014 -0.736,0.156 -1.503,-0.431 -2.086,-1.308 -0.66,-0.431 -1.499,-0.149 -1.499,-0.149 0,0 0.728,-0.736 0.656,-1.465 -0.244,-0.873 -0.218,-1.601 0.118,-2.181 -0.263,-2.197 0.469,-4.237 2.147,-5.118 0,0 1.644,1.461 3.36,2.197 0,0 -2.002,-4.389 -2.929,-7.15 l -13.172,4.953 c 0,0 1.533,-1.884 1.392,-4.953 0,0 0.141,0.865 1.205,0.568 1.056,-0.427 12.55,-4.367 12.55,-4.367 0,0 3.181,8.024 4.344,10.663 l -0.587,1.891 2.017,0.584 c 1.27,2.479 2.479,4.66 3.531,6.422 l 0.176,0.427 c 0.335,-0.13 0.671,-0.13 0.999,-0.13 2.505,0 4.599,2.029 4.637,4.508 0,1.03 -0.328,1.91 -0.85,2.635 z"
       style="fill:#d9c659;fill-opacity:1;fill-rule:nonzero;stroke:none"
       transform="matrix(1.3333333,0,0,-1.3333333,158.7072,204.6628)"
       clip-path="url(#clipPath77)" />
    <path
       id="path78"
       d="M 0,0 C -0.076,-0.145 -1.011,-1.316 -1.011,-1.316 -2.037,-2.345 -2.94,-1.617 -2.94,-1.617 l -5.957,5.118 c -1.03,0.873 -1.171,1.163 -0.877,1.605 l 1.613,2.197 7.295,-5.842 C -0.37,1.022 0.53,0.721 0,0 m 3.482,1.461 -10.35,7.737 0.85,1.022 -1.811,1.308 -0.778,-1.01 -4.012,3.054 -1.312,-1.605 3.974,-3.215 -1.48,-1.895 C -12.039,6.124 -13.21,7.15 -13.21,7.15 l -6.506,5.393 c -1.041,0.728 -0.671,1.617 -0.671,1.617 l 2.62,3.355 -1.716,1.312 c 0,0 -3.024,-3.794 -3.127,-3.935 -1.434,-1.621 0.358,-2.925 0.358,-2.925 l 8.081,-7.006 c 1.186,-1.014 1.773,-0.728 2.322,-0.297 -0.915,-1.312 0.55,-2.193 0.55,-2.193 l 7.726,-6.849 c 0,0 1.617,-1.167 2.951,0.58 z"
       style="fill:#d9c659;fill-opacity:1;fill-rule:nonzero;stroke:none"
       transform="matrix(1.3333333,0,0,-1.3333333,421.422,395.2636)"
       clip-path="url(#clipPath79)" />
    <path
       id="path80"
       d="m 0,0 -6.544,0.29 c -1.19,0 -2.109,-0.576 -2.143,-3.642 -0.321,-3.07 0.476,-3.501 1.96,-3.802 l 8.985,-0.721 c 0,0 0.918,-0.297 2.429,1.747 l 2.28,3.199 c 0.687,0.744 1.51,0.599 3.634,0.458 l 5.641,-0.294 c 0.652,-0.164 1.414,-0.297 1.388,-1.167 l -0.248,-2.04 c -0.046,-0.881 -0.561,-1.182 -1.571,-0.881 l -6.102,0.576 -0.145,-2.334 7.909,-0.858 c 1.835,0 2.453,1.297 2.491,2.471 l 0.286,3.936 c 0.064,1.758 -0.977,2.494 -2.777,2.639 l -8.82,0.278 c -1.446,0 -2.441,0 -2.845,-0.728 L 3.176,-4.378 C 1.926,-6.128 1.251,-5.541 1.251,-5.541 l -5.991,0.294 c -1.426,0 -1.838,0.438 -1.652,1.895 0.149,1.457 0.271,1.75 1.941,1.594 l 4.302,-0.282 z"
       style="fill:#d9c659;fill-opacity:1;fill-rule:nonzero;stroke:none"
       transform="matrix(1.3333333,0,0,-1.3333333,434.79413,291.08707)"
       clip-path="url(#clipPath81)" />
    <path
       id="path82"
       d="m 0,0 -2.452,0.725 -0.908,-2.62 -9.747,3.504 0.686,2.04 -2.162,0.721 -0.706,-1.899 -10.727,3.798 0.648,2.041 -1.979,0.732 -1.388,-3.932 26.908,-10.213 z"
       style="fill:#d9c659;fill-opacity:1;fill-rule:nonzero;stroke:none"
       transform="matrix(1.3333333,0,0,-1.3333333,452.948,341.67107)"
       clip-path="url(#clipPath83)" />
    <path
       id="path84"
       d="m 0,0 -2.143,0.153 -0.382,-3.078 -26.286,3.512 -0.328,-1.895 28.365,-4.237 z"
       style="fill:#d9c659;fill-opacity:1;fill-rule:nonzero;stroke:none"
       transform="matrix(1.3333333,0,0,-1.3333333,460.79373,305.59173)"
       clip-path="url(#clipPath85)" />
    <path
       id="path86"
       d="m 0,0 -25.322,13.87 -0.927,-1.751 11.544,-9.492 -13.896,5.545 -1.171,-1.746 23.971,-15.91 1.488,2.04 -15.17,9.782 L -2.734,-4.527 -17.081,6.872 -1.27,-2.04 Z"
       style="fill:#d9c659;fill-opacity:1;fill-rule:nonzero;stroke:none"
       transform="matrix(1.3333333,0,0,-1.3333333,440.11747,371.926)"
       clip-path="url(#clipPath87)" />
    <path
       id="path88"
       d="m 0,0 -10.659,3.055 0.545,2.192 c 0,0 0,1.171 1.259,0.736 1.319,-0.434 8.512,-2.181 8.512,-2.181 0,0 1.46,-0.309 1.178,-1.331 z m 4.633,2.471 11.04,-2.91 0.698,2.479 -11.822,2.921 c 0,0 -1.597,0 -1.998,-0.873 C 2.437,4.664 2.288,5.831 0.786,5.831 l -10,2.341 c 0,0 -2.314,0.881 -2.776,-1.014 L -13.584,1.907 13.927,-6.857 14.663,-4.378 2.288,-0.732 2.99,1.907 C 3.249,2.772 3.894,2.62 4.633,2.471"
       style="fill:#d9c659;fill-opacity:1;fill-rule:nonzero;stroke:none"
       transform="matrix(1.3333333,0,0,-1.3333333,435.1076,330.56307)"
       clip-path="url(#clipPath89)" />
    <path
       id="path90"
       d="m 0,0 26.061,-12.562 1.053,2.327 -19.411,8.782 20.761,-5.274 1.014,2.341 L 2.772,6.418 1.922,4.523 16.772,-1.754 0.751,1.891 Z"
       style="fill:#d9c659;fill-opacity:1;fill-rule:nonzero;stroke:none"
       transform="matrix(1.3333333,0,0,-1.3333333,409.94173,345.658)"
       clip-path="url(#clipPath91)" />
    <path
       id="path92"
       d="M 0,0 -14.408,4.08 0.473,2.479 Z M 9.045,1.747 9.419,3.943 -19.339,6.266 -19.815,4.08 7.734,-4.679 8.317,-2.197 1.758,-0.435 2.345,2.322 Z"
       style="fill:#d9c659;fill-opacity:1;fill-rule:nonzero;stroke:none"
       transform="matrix(1.3333333,0,0,-1.3333333,446.63253,319.8572)"
       clip-path="url(#clipPath93)" />
    <path
       id="path94"
       d="m 0,0 0.21,-2.048 -28.354,-3.653 -0.282,2.627 z"
       style="fill:#d9c659;fill-opacity:1;fill-rule:nonzero;stroke:none"
       transform="matrix(1.3333333,0,0,-1.3333333,151.89427,302.5628)"
       clip-path="url(#clipPath95)" />
    <path
       id="path96"
       d="m 0,0 -28.464,-4.229 0.366,-2.342 19.964,3.352 -19.342,-7.432 0.366,-2.345 28.361,6.284 -0.378,1.743 -17.797,-3.501 17.252,6.556 z"
       style="fill:#d9c659;fill-opacity:1;fill-rule:nonzero;stroke:none"
       transform="matrix(1.3333333,0,0,-1.3333333,152.80787,307.23507)"
       clip-path="url(#clipPath97)" />
    <path
       id="path98"
       d="M 0,0 13.618,6.574 28.426,2.921 28.212,4.973 16.821,7.734 28.136,8.169 28.06,10.075 -0.698,9.202 -0.641,6.7 10.552,7.444 -0.221,2.479 Z"
       style="fill:#d9c659;fill-opacity:1;fill-rule:nonzero;stroke:none"
       transform="matrix(1.3333333,0,0,-1.3333333,113.88373,305.29373)"
       clip-path="url(#clipPath99)" />
    <path
       id="path100"
       d="m 0,0 -1.125,3.932 -2.09,-0.576 0.511,-1.754 -5.32,-1.751 c -0.808,-0.152 -1.75,0.29 -1.979,1.148 l -0.4,1.77 c -0.286,1.022 0.659,1.315 1.495,1.456 l 20.116,5.252 c 1.38,0.286 1.853,0.286 2.33,-1.595 0.4,-1.464 -0.427,-1.91 -1.529,-2.047 L 6.052,4.084 6.639,2.04 14.24,4.37 c 1.563,0.439 2.364,1.018 1.414,4.245 -0.759,3.054 -1.414,3.5 -3.348,3.054 L -10.617,6.273 c -1.861,-0.587 -2.776,-1.3 -2.273,-3.504 0,0 0.66,-3.52 2.7,-3.364 l -1.491,-0.435 0.767,-2.475 z"
       style="fill:#d9c659;fill-opacity:1;fill-rule:nonzero;stroke:none"
       transform="matrix(1.3333333,0,0,-1.3333333,135.48853,335.2552)"
       clip-path="url(#clipPath101)" />
    <path
       id="path102"
       d="m 0,0 15.025,-19.121 c 0.828,-1.182 0.999,-1.75 0.404,-2.341 l -1.35,-1.164 c -0.919,-0.575 -1.594,0 -2.333,1.019 l -14.492,19.555 -1.628,-1.159 15.364,-21.6 c 0.832,-1.323 2.079,-1.464 3.066,-0.74 l 3.684,2.925 c 1.08,0.878 1.865,1.61 0.721,3.219 L 1.415,1.167 Z"
       style="fill:#d9c659;fill-opacity:1;fill-rule:nonzero;stroke:none"
       transform="matrix(1.3333333,0,0,-1.3333333,372.47227,393.6548)"
       clip-path="url(#clipPath103)" />
    <path
       id="path104"
       d="m 0,0 -1.827,0.141 c -0.915,0 -1.125,1.034 -1.094,1.892 l 1.533,20.593 c 0.141,1.311 0.339,1.887 2.193,1.761 1.498,-0.156 1.666,-0.591 1.597,-1.91 L 1.682,1.461 C 1.636,0.572 0.858,0 0,0 m 4.42,23.937 c 0.027,1.469 -0.271,2.479 -3.581,2.632 -3.215,0.29 -3.909,-0.588 -3.981,-2.182 l -2.3,-23.956 c -0.122,-1.747 1.35,-2.479 3.146,-2.479 l 3.49,-0.137 c 1.781,-0.145 2.684,0.572 2.787,2.326 z"
       style="fill:#d9c659;fill-opacity:1;fill-rule:nonzero;stroke:none"
       transform="matrix(1.3333333,0,0,-1.3333333,279.82573,458.46467)"
       clip-path="url(#clipPath105)" />
    <path
       id="path106"
       d="M 0,0 -1.674,-0.728 C -2.49,-1.03 -3.013,-0.431 -3.425,0.423 l -8.942,18.69 c -0.549,1.316 -0.626,1.766 1.06,2.628 1.342,0.587 1.754,0.297 2.372,-1.007 L 0.446,2.178 C 0.85,1.464 0.816,0.423 0,0 m -7.909,23.068 c -0.774,1.312 -1.529,2.032 -4.458,0.58 -2.925,-1.32 -3.063,-2.487 -2.376,-3.947 l 9.789,-21.894 c 0.801,-1.598 2.368,-1.457 3.978,-0.728 l 3.138,1.594 c 1.602,0.896 1.926,1.75 1.167,3.363 z"
       style="fill:#d9c659;fill-opacity:1;fill-rule:nonzero;stroke:none"
       transform="matrix(1.3333333,0,0,-1.3333333,364.9196,440.36013)"
       clip-path="url(#clipPath107)" />
    <path
       id="path108"
       d="m 0,0 -0.065,2.479 -2.01,-0.141 -0.251,11.234 h 2.509 l -0.107,2.334 -4.309,-0.152 -0.069,-28.739 h 2.449 l -0.191,12.832 z"
       style="fill:#d9c659;fill-opacity:1;fill-rule:nonzero;stroke:none"
       transform="matrix(1.3333333,0,0,-1.3333333,294.17133,444.45187)"
       clip-path="url(#clipPath109)" />
    <path
       id="path110"
       d="m 0,0 -2.662,-0.583 -1.418,11.089 1.75,0.301 c 0.877,0.294 1.491,0 1.56,-0.579 L 0.843,1.461 C 0.843,1.461 1.03,0.153 0,0 M 3.363,0.728 1.205,11.677 c 0,0 -0.328,2.04 -2.223,1.609 l -5.438,-1.026 3.352,-28.315 2.662,0.446 -1.804,12.688 4.259,0.881 c 0,0 1.896,0 1.35,2.768"
       style="fill:#d9c659;fill-opacity:1;fill-rule:nonzero;stroke:none"
       transform="matrix(1.3333333,0,0,-1.3333333,313.194,438.81133)"
       clip-path="url(#clipPath111)" />
    <path
       id="path112"
       d="m 0,0 -0.496,2.04 -2.959,-0.724 -2.414,10.365 2.01,0.579 -0.546,2.186 -1.975,-0.435 -2.582,11.093 2.296,0.591 -0.507,2.186 -4.275,-1.171 5.922,-28.174 z"
       style="fill:#d9c659;fill-opacity:1;fill-rule:nonzero;stroke:none"
       transform="matrix(1.3333333,0,0,-1.3333333,331.43227,455.93707)"
       clip-path="url(#clipPath113)" />
    <path
       id="path114"
       d="M 0,0 -1.19,1.75 -3.886,0 l -6.025,8.901 1.788,1.464 -1.171,1.75 -1.822,-1.311 -6.358,9.636 2.338,1.606 -1.148,1.754 -3.924,-2.639 15.372,-24.532 z"
       style="fill:#d9c659;fill-opacity:1;fill-rule:nonzero;stroke:none"
       transform="matrix(1.3333333,0,0,-1.3333333,387.29413,430.43947)"
       clip-path="url(#clipPath115)" />
    <path
       id="path116"
       d="M 0,0 -1.171,2.04 -3.829,0.423 -17.149,23.354 -18.831,22.34 -4.858,-2.772 Z"
       style="fill:#d9c659;fill-opacity:1;fill-rule:nonzero;stroke:none"
       transform="matrix(1.3333333,0,0,-1.3333333,379.7668,435.4992)"
       clip-path="url(#clipPath117)" />
    <path
       id="path118"
       d="m 0,0 -8.005,25.253 1.911,0.587 -0.641,2.041 -5.987,-1.747 0.637,-2.185 2.101,0.721 7.524,-25.387 z"
       style="fill:#d9c659;fill-opacity:1;fill-rule:nonzero;stroke:none"
       transform="matrix(1.3333333,0,0,-1.3333333,340.3208,453.41453)"
       clip-path="url(#clipPath119)" />
    <path
       id="path120"
       d="m 0,0 -20.406,20.292 -1.564,-1.457 8.367,-12.558 -11.479,9.343 -1.7,-1.617 L -8.1,-7.726 -6.201,-5.98 -18.057,7.585 -3.962,-4.084 -14.488,11.254 -1.781,-1.754 Z"
       style="fill:#d9c659;fill-opacity:1;fill-rule:nonzero;stroke:none"
       transform="matrix(1.3333333,0,0,-1.3333333,412.07747,409.22667)"
       clip-path="url(#clipPath121)" />
    <path
       id="path122"
       d="m 0,0 -3.863,10.365 2.002,0.881 c 0,0 0.957,0.732 1.415,-0.58 0.473,-1.174 3.264,-8.18 3.264,-8.18 0,0 0.545,-1.159 -0.442,-1.46 z M 4.782,-2.185 9.015,-12.695 11.46,-11.81 6.452,0 c 0,0 -0.728,0.587 -1.647,0.442 0.4,0.439 1.224,1.167 0.301,2.479 L 1.102,12.26 c 0,0 -0.706,2.491 -2.49,1.613 l -5.213,-1.895 9.442,-27.297 2.441,0.87 -4.458,12.264 2.509,0.881 c 0.862,0.431 1.148,-0.149 1.449,-0.881"
       style="fill:#d9c659;fill-opacity:1;fill-rule:nonzero;stroke:none"
       transform="matrix(1.3333333,0,0,-1.3333333,341.6216,431.616)"
       clip-path="url(#clipPath123)" />
    <path
       id="path124"
       d="m 0,0 2.486,5.976 c 0.412,1.178 0.222,2.189 -2.73,3.356 -2.67,1.304 -3.402,0.732 -4.13,-0.729 L -8.237,0.576 c 0,0 -0.519,-0.873 0.831,-2.925 l 2.2,-3.211 c 0.687,-1.163 0.172,-1.606 -0.228,-2.479 l -2.803,-6.414 c -0.263,-0.595 -0.805,-1.167 -1.652,-0.736 l -1.788,0.873 c -0.797,0.294 -0.652,0.873 -0.206,1.899 l 2.509,5.392 -2.112,1.03 -3.467,-7.291 c -0.675,-1.61 0.366,-2.635 1.419,-3.078 l 3.577,-1.601 c 1.643,-0.725 2.887,-0.142 3.573,1.46 l 3.36,8.466 c 0.511,1.316 0.736,2.193 -0.107,3.356 l -2.075,3.074 C -6.487,0.29 -5.8,0.713 -5.8,0.713 l 2.448,5.408 c 0.61,1.315 1.209,1.464 2.326,1.033 1.312,-0.591 1.59,-0.892 0.931,-2.49 L -1.853,0.713 Z"
       style="fill:#d9c659;fill-opacity:1;fill-rule:nonzero;stroke:none"
       transform="matrix(1.3333333,0,0,-1.3333333,233.726,424.59)"
       clip-path="url(#clipPath125)" />
    <path
       id="path126"
       d="m 0,0 -18.248,-16.936 c -0.907,-0.881 -1.495,-1.163 -2.109,-0.579 l -1.388,1.746 c -0.625,0.584 -0.473,1.163 0.473,2.044 L -2.368,2.471 -3.573,3.943 -23.907,-12.989 c -1.091,-1.026 -1.091,-2.196 -0.301,-3.081 l 2.604,-2.917 c 1.247,-1.453 2.22,-1.743 3.57,-0.573 L 1.197,-1.316 Z"
       style="fill:#d9c659;fill-opacity:1;fill-rule:nonzero;stroke:none"
       transform="matrix(1.3333333,0,0,-1.3333333,187.89413,379.83067)"
       clip-path="url(#clipPath127)" />
    <path
       id="path128"
       d="m 0,0 1.098,1.907 -2.768,1.754 6.056,8.905 1.635,-1.03 1.286,1.895 -1.614,1.171 6.281,9.339 2.254,-1.46 1.171,1.906 -3.856,2.468 L -4.958,3.356 Z"
       style="fill:#d9c659;fill-opacity:1;fill-rule:nonzero;stroke:none"
       transform="matrix(1.3333333,0,0,-1.3333333,196.16707,436.28387)"
       clip-path="url(#clipPath129)" />
    <path
       id="path130"
       d="m 0,0 7.23,25.692 2.517,-0.58 0.511,2.044 L 3.577,29.051 2.891,26.855 5.297,26.119 -2.372,0.732 Z"
       style="fill:#d9c659;fill-opacity:1;fill-rule:nonzero;stroke:none"
       transform="matrix(1.3333333,0,0,-1.3333333,240.4988,455.5496)"
       clip-path="url(#clipPath131)" />
    <path
       id="path132"
       d="M 0,0 5.507,9.633 7.524,8.748 C 8.573,8.169 7.814,7.295 7.44,6.719 L 3.505,-0.732 c 0,0 -0.359,-1.018 -1.27,-0.599 z m 0.873,-5.705 -4.889,-9.335 2.315,-1.167 5.312,10.502 c 0.889,1.769 0,2.341 -0.354,2.624 0.534,0 1.571,-0.283 2.185,0.896 1.312,2.33 4.813,9.331 4.813,9.331 0,0 1.163,2.041 -0.542,2.922 l -4.786,2.623 -14.671,-24.669 2.159,-1.308 6.452,11.242 1.575,-1.037 C 1.83,-3.936 1.247,-4.969 0.873,-5.705"
       style="fill:#d9c659;fill-opacity:1;fill-rule:nonzero;stroke:none"
       transform="matrix(1.3333333,0,0,-1.3333333,211.88267,421.67507)"
       clip-path="url(#clipPath133)" />
    <path
       id="path134"
       d="m 0,0 1.705,-0.572 -9.16,-27.309 -2.517,0.733 z"
       style="fill:#d9c659;fill-opacity:1;fill-rule:nonzero;stroke:none"
       transform="matrix(1.3333333,0,0,-1.3333333,241.14467,415.26987)"
       clip-path="url(#clipPath135)" />
    <path
       id="path136"
       d="m 0,0 1.426,-1.316 -18.179,-22.194 -1.788,1.464 z"
       style="fill:#d9c659;fill-opacity:1;fill-rule:nonzero;stroke:none"
       transform="matrix(1.3333333,0,0,-1.3333333,199.916,391.50453)"
       clip-path="url(#clipPath137)" />
    <path
       id="path138"
       d="m 0,0 -20.395,-20.288 1.644,-1.598 13.755,14.148 -11.021,-16.638 1.781,-1.605 18.915,21.309 -1.422,1.453 -10.808,-11.818 8.725,13.721 z"
       style="fill:#d9c659;fill-opacity:1;fill-rule:nonzero;stroke:none"
       transform="matrix(1.3333333,0,0,-1.3333333,191.30053,383.53533)"
       clip-path="url(#clipPath139)" />
    <path
       id="path140"
       d="m 0,0 -2.155,0.29 -3.474,-10.945 0.626,11.524 -2.228,0.435 -0.434,-16.192 -2.811,-12.558 2.483,-0.435 2.414,12.547 z"
       style="fill:#d9c659;fill-opacity:1;fill-rule:nonzero;stroke:none"
       transform="matrix(1.3333333,0,0,-1.3333333,265.36613,421.48173)"
       clip-path="url(#clipPath141)" />
    <path
       id="path142"
       d="m 0,0 -15.216,-24.506 1.705,-1.319 19.239,21.607 -1.712,1.312 -13.47,-15.765 11.166,17.367 z"
       style="fill:#d9c659;fill-opacity:1;fill-rule:nonzero;stroke:none"
       transform="matrix(1.3333333,0,0,-1.3333333,202.79093,394.06213)"
       clip-path="url(#clipPath143)" />
    <path
       id="path144"
       d="M 0,0 14.045,5.118 1.014,-2.197 Z m -6.392,-6.719 1.053,-2.037 24.567,15.037 -0.996,2.04 -27.289,-9.057 0.949,-2.33 6.346,2.479 1.171,-2.624 z"
       style="fill:#d9c659;fill-opacity:1;fill-rule:nonzero;stroke:none"
       transform="matrix(1.3333333,0,0,-1.3333333,139.00413,354.33293)"
       clip-path="url(#clipPath145)" />
    <path
       id="path146"
       d="M 0,0 1.125,-2.033 25.764,12.848 24.677,14.461 12.771,7.452 11.097,10.533 23.182,17.085 22.446,18.694 -3.142,5.705 -2.048,3.363 9.198,9.641 10.987,6.433 Z"
       style="fill:#d9c659;fill-opacity:1;fill-rule:nonzero;stroke:none"
       transform="matrix(1.3333333,0,0,-1.3333333,136.9484,375.37187)"
       clip-path="url(#clipPath147)" />
    <path
       id="path148"
       d="M 0,0 -1.133,1.602 19.559,15.46 c 0,0 0.881,-1.308 1.385,-2.04 0.549,-0.87 -0.866,-1.449 -1.133,-1.747 C 19.559,11.383 4.13,0.717 2.151,-0.736 1.178,-1.32 0.808,-1.171 0,0 m 21.905,10.655 c 0,0 2.219,0.873 0.648,3.226 -1.525,2.46 -2.559,3.917 -2.559,3.917 L -4.264,2.326 l 3.711,-5.4 c 0,0 1.274,-2.048 3.302,-0.431 1.995,1.61 19.156,14.16 19.156,14.16"
       style="fill:#d9c659;fill-opacity:1;fill-rule:nonzero;stroke:none"
       transform="matrix(1.3333333,0,0,-1.3333333,146.14453,384.30467)"
       clip-path="url(#clipPath149)" />
    <path
       id="path150"
       d="m 0,0 0.923,-2.044 2.063,0.869 -0.831,2.197 10.33,3.947 1.282,-2.78 2.082,0.885 -1.766,4.515 -26.877,-10.068 0.785,-2.2 z"
       style="fill:#d9c659;fill-opacity:1;fill-rule:nonzero;stroke:none"
       transform="matrix(1.3333333,0,0,-1.3333333,141.46693,345.77747)"
       clip-path="url(#clipPath151)" />
    <path
       id="path152"
       d="m 0,0 -3.276,-1.743 1.133,-7.745 2.879,0.881 z"
       style="fill:#d9c659;fill-opacity:1;fill-rule:nonzero;stroke:none"
       transform="matrix(1.3333333,0,0,-1.3333333,278.89227,221.0192)"
       clip-path="url(#clipPath153)" />
    <path
       id="path154"
       d="m 0,0 -2.864,-0.885 0.641,-6.712 2.501,0.29 z"
       style="fill:#d9c659;fill-opacity:1;fill-rule:nonzero;stroke:none"
       transform="matrix(1.3333333,0,0,-1.3333333,280.07387,234.43573)"
       clip-path="url(#clipPath155)" />
    <path
       id="path156"
       d="M 0,0 -1.525,11.383 5.225,12.405 5.171,0.294 Z"
       style="fill:#d9c659;fill-opacity:1;fill-rule:nonzero;stroke:none"
       transform="matrix(1.3333333,0,0,-1.3333333,280.55533,218.28773)"
       clip-path="url(#clipPath157)" />
    <path
       id="path158"
       d="M 0,0 2.376,-10.369 5.888,-8.47 4.336,2.78 Z"
       style="fill:#d9c659;fill-opacity:1;fill-rule:nonzero;stroke:none"
       transform="matrix(1.3333333,0,0,-1.3333333,271.012,207.58693)"
       clip-path="url(#clipPath159)" />
    <path
       id="path160"
       d="M 0,0 0.694,-8.897 H 5.026 V 0.286 Z"
       style="fill:#d9c659;fill-opacity:1;fill-rule:nonzero;stroke:none"
       transform="matrix(1.3333333,0,0,-1.3333333,280.7492,220.04093)"
       clip-path="url(#clipPath161)" />
    <path
       id="path162"
       d="M 0,0 0.214,-7.585 H 4.187 V 0 Z"
       style="fill:#d9c659;fill-opacity:1;fill-rule:nonzero;stroke:none"
       transform="matrix(1.3333333,0,0,-1.3333333,281.96587,233.86467)"
       clip-path="url(#clipPath163)" />
    <path
       id="path164"
       d="M 0,0 3.287,-1.743 2.158,-9.488 -0.725,-8.607 Z"
       style="fill:#d9c659;fill-opacity:1;fill-rule:nonzero;stroke:none"
       transform="matrix(1.3333333,0,0,-1.3333333,297.77627,221.0192)"
       clip-path="url(#clipPath165)" />
    <path
       id="path166"
       d="m 0,0 2.872,-0.885 -0.656,-6.712 -2.521,0.29 z"
       style="fill:#d9c659;fill-opacity:1;fill-rule:nonzero;stroke:none"
       transform="matrix(1.3333333,0,0,-1.3333333,296.61893,234.43573)"
       clip-path="url(#clipPath167)" />
    <path
       id="path168"
       d="m 0,0 1.548,11.383 -6.723,1.022 V 0.294 Z"
       style="fill:#d9c659;fill-opacity:1;fill-rule:nonzero;stroke:none"
       transform="matrix(1.3333333,0,0,-1.3333333,296.11253,218.28773)"
       clip-path="url(#clipPath169)" />
    <path
       id="path170"
       d="M 0,0 -2.376,-10.369 -5.869,-8.47 -4.355,2.78 Z"
       style="fill:#d9c659;fill-opacity:1;fill-rule:nonzero;stroke:none"
       transform="matrix(1.3333333,0,0,-1.3333333,305.65653,207.58693)"
       clip-path="url(#clipPath171)" />
    <path
       id="path172"
       d="M 0,0 -0.675,-8.897 H -5.034 V 0.286 Z"
       style="fill:#d9c659;fill-opacity:1;fill-rule:nonzero;stroke:none"
       transform="matrix(1.3333333,0,0,-1.3333333,295.924,220.04093)"
       clip-path="url(#clipPath173)" />
    <path
       id="path174"
       d="M 0,0 -0.21,-7.585 H -4.191 V 0 Z"
       style="fill:#d9c659;fill-opacity:1;fill-rule:nonzero;stroke:none"
       transform="matrix(1.3333333,0,0,-1.3333333,294.79667,233.86467)"
       clip-path="url(#clipPath175)" />
    <path
       id="path176"
       d="M 0,0 -2.265,-2.185 H 16.173 L 13.854,0 h -0.129 v 0.591 c 0,3.341 0.949,4.527 1.491,5.091 v 65.707 l -2.448,0.156 V 0 h -2.616 v 1.182 c 0,2.62 0.629,4.081 1.3,4.801 l -0.034,65.7 H 7.589 V 6.128 C 8.359,5.263 9.129,3.932 9.129,1.033 V 0 H 4.828 v 1.033 c 0,2.899 0.755,4.23 1.514,5.095 L 6.273,71.683 H 2.509 L 2.486,5.983 C 3.161,5.263 3.798,3.802 3.798,1.182 V 0 h -2.7 V 71.545 L -1.354,71.389 V 5.682 C -0.801,5.118 0.137,3.932 0.137,0.591 V 0 Z"
       style="fill:#d9c659;fill-opacity:1;fill-rule:nonzero;stroke:none"
       transform="matrix(1.3333333,0,0,-1.3333333,279.09107,341.50227)"
       clip-path="url(#clipPath177)" />
    <path
       id="path178"
       d="m 0,0 c 0,0 -0.461,-0.446 -1.167,-1.758 0,0 3.646,-2.776 3.539,-9.484 0,0 1.838,7.146 -2.372,11.242"
       style="fill:#d9c659;fill-opacity:1;fill-rule:nonzero;stroke:none"
       transform="matrix(1.3333333,0,0,-1.3333333,312.2752,328.24907)"
       clip-path="url(#clipPath179)" />
    <path
       id="path180"
       d="m 0,0 c 0,-0.454 -0.137,-1.175 -1.529,-1.175 -1.484,0 -1.56,1.457 -1.56,1.457 C -3.535,-0.736 -4.08,-1.175 -4.965,-1.022 -5.854,-1.175 -6.407,0 -6.704,0.149 l -0.347,-0.446 c -0.149,-0.298 -0.37,-0.363 -0.797,-1.164 0,0 3.623,-2.925 3.554,-9.633 0,0 1.117,4.523 -0.484,8.463 1.765,0 1.689,1.315 1.689,1.315 0,0 0.149,-1.163 1.712,-1.163 C 0.118,-2.479 0.08,-0.58 0,0"
       style="fill:#d9c659;fill-opacity:1;fill-rule:nonzero;stroke:none"
       transform="matrix(1.3333333,0,0,-1.3333333,329.9776,328.44787)"
       clip-path="url(#clipPath181)" />
    <path
       id="path182"
       d="M 0,0 V -0.282 Z"
       style="fill:#d9c659;fill-opacity:1;fill-rule:nonzero;stroke:none"
       transform="matrix(1.3333333,0,0,-1.3333333,329.9776,328.07053)"
       clip-path="url(#clipPath183)" />
    <path
       id="path184"
       d="m 0,0 c 0,-0.454 -0.191,-1.175 -1.545,-1.175 -1.494,0 -1.559,1.324 -1.559,1.324 -0.446,-1.026 -1.026,-1.324 -1.857,-1.324 -0.908,0 -1.465,1.042 -1.77,1.324 l -0.347,-0.633 c -0.233,-0.271 -0.416,-0.454 -0.789,-1.125 0,0 3.63,-2.777 3.558,-9.485 0,0 1.102,4.378 -0.481,8.314 1.751,0 1.686,1.464 1.686,1.464 0,0 0.141,-1.163 1.716,-1.163 1.46,0 1.46,1.743 1.388,2.479"
       style="fill:#d9c659;fill-opacity:1;fill-rule:nonzero;stroke:none"
       transform="matrix(1.3333333,0,0,-1.3333333,353.20587,328.44787)"
       clip-path="url(#clipPath185)" />
    <path
       id="path186"
       d="M 0,0 C 0,0 0.049,0 0.049,-0.149 0.049,0 0,0 0,0"
       style="fill:#d9c659;fill-opacity:1;fill-rule:nonzero;stroke:none"
       transform="matrix(1.3333333,0,0,-1.3333333,353.14133,328.24907)"
       clip-path="url(#clipPath187)" />
    <path
       id="path188"
       d="m 0,0 c 0,0 -0.225,-4.965 -3.814,-9.198 l 0.874,-2.052 c 0,0 2.94,3.509 2.94,8.184 0,0 0.496,-5.415 3.703,-8.184 l 0.519,2.052 C 0.786,-5.556 0,0 0,0"
       style="fill:#d9c659;fill-opacity:1;fill-rule:nonzero;stroke:none"
       transform="matrix(1.3333333,0,0,-1.3333333,336.3828,328.44787)"
       clip-path="url(#clipPath189)" />
    <path
       id="path190"
       d="m 0,0 c 0.744,-0.732 1.537,-1.018 2.402,-1.018 0.637,0 1.141,0.145 1.575,0.438 C 4.21,-0.427 4.42,-0.282 4.603,0 4.572,-0.873 4.5,-1.602 4.309,-2.04 4.019,-2.772 3.508,-3.207 2.78,-3.207 c -0.4,0 -0.69,0.149 -0.95,0.293 -0.217,0.142 -0.373,0.447 -0.408,0.874 h -2.219 c 0.11,-1.018 0.469,-1.754 1.159,-2.178 0.702,-0.591 1.468,-0.885 2.319,-0.885 1.781,0 2.982,0.885 3.672,2.636 0.34,1.01 0.511,2.04 0.511,3.5 0,1.446 -0.171,2.475 -0.545,3.341 C 5.663,5.987 4.5,6.719 2.78,6.719 1.647,6.719 0.744,6.285 0.034,5.549 -0.687,4.828 -1.018,3.806 -1.018,2.624 -1.018,1.464 -0.687,0.583 0,0 M 1.647,1.323 C 1.403,1.613 1.255,2.178 1.255,2.78 c 0,0.873 0.202,1.461 0.614,1.754 0.289,0.294 0.617,0.294 0.976,0.294 0.53,0 0.961,-0.149 1.262,-0.587 C 4.389,3.947 4.534,3.363 4.534,2.78 4.534,2.052 4.275,1.464 3.806,1.033 3.508,0.877 3.222,0.877 2.929,0.877 2.345,0.877 1.933,1.033 1.647,1.323"
       style="fill:#d9c659;fill-opacity:1;fill-rule:nonzero;stroke:none"
       transform="matrix(1.3333333,0,0,-1.3333333,230.9056,336.82947)"
       clip-path="url(#clipPath191)" />
    <path
       id="path192"
       d="m 0,0 h 2.181 c 0,-0.431 0.084,-0.881 0.21,-1.159 0.301,-0.443 0.778,-0.736 1.518,-0.736 0.431,0 0.789,0.148 1.113,0.434 0.332,0.302 0.511,0.733 0.511,1.316 C 5.533,0.576 5.205,1.03 4.63,1.312 4.248,1.464 3.699,1.464 2.978,1.464 V 3.07 c 0.721,0 1.24,0.141 1.533,0.293 0.485,0.126 0.74,0.573 0.74,1.312 0,0.443 -0.141,0.733 -0.374,1.011 C 4.63,5.987 4.248,6.136 3.779,6.136 3.276,6.136 2.883,5.987 2.62,5.686 2.391,5.259 2.265,4.82 2.28,4.237 H 0.206 c 0,0.583 0.122,1.171 0.267,1.609 0.175,0.435 0.465,0.873 0.865,1.297 0.287,0.32 0.649,0.453 1.053,0.602 0.416,0.134 0.885,0.134 1.472,0.134 1.079,0 1.964,-0.134 2.62,-0.736 C 7.143,6.578 7.509,5.846 7.509,4.82 7.509,4.237 7.295,3.649 6.899,3.211 6.639,2.925 6.365,2.631 6.117,2.631 6.296,2.631 6.586,2.341 7.002,2.04 7.547,1.464 7.837,0.728 7.837,-0.145 7.837,-1.014 7.509,-1.895 6.841,-2.62 6.193,-3.356 5.205,-3.791 3.909,-3.791 c -1.629,0 -2.75,0.58 -3.371,1.598 C 0.206,-1.602 0.03,-0.881 0,0"
       style="fill:#d9c659;fill-opacity:1;fill-rule:nonzero;stroke:none"
       transform="matrix(1.3333333,0,0,-1.3333333,255.45493,338.5776)"
       clip-path="url(#clipPath193)" />
    <path
       id="path194"
       d="M 0,0 C -0.656,0.602 -1.499,0.885 -2.525,0.885 -3.253,0.885 -3.917,0.736 -4.42,0.454 -4.923,0 -5.37,-0.423 -5.705,-1.007 -6.06,-1.59 -6.319,-2.322 -6.46,-3.352 c -0.08,-0.58 -0.118,-1.3 -0.118,-2.181 0,-1.465 0.259,-2.624 0.804,-3.505 0.66,-1.316 1.72,-1.895 3.181,-1.895 1.315,0 2.296,0.434 2.921,1.308 0.652,0.736 0.953,1.754 0.953,2.776 0,1.018 -0.339,1.895 -0.953,2.631 -0.656,0.725 -1.499,1.011 -2.479,1.011 -0.488,0 -0.919,-0.145 -1.285,-0.286 -0.362,-0.16 -0.652,-0.286 -0.95,-0.725 0.073,0.866 0.183,1.606 0.332,2.04 0.324,0.881 0.839,1.171 1.56,1.171 0.484,0 0.85,-0.149 1.102,-0.45 0.141,-0.278 0.221,-0.427 0.221,-0.568 H 1.06 C 0.942,-1.156 0.622,-0.423 0,0 m -3.638,-5.404 c 0.278,0.301 0.606,0.45 0.968,0.45 0.489,0 0.878,-0.293 1.202,-0.579 0.335,-0.298 0.48,-0.881 0.48,-1.465 0,-0.576 -0.145,-1.159 -0.404,-1.445 -0.297,-0.446 -0.69,-0.595 -1.201,-0.595 -0.477,0 -0.915,0.149 -1.236,0.595 -0.335,0.286 -0.484,0.869 -0.484,1.445 0,0.736 0.225,1.32 0.675,1.594"
       style="fill:#d9c659;fill-opacity:1;fill-rule:nonzero;stroke:none"
       transform="matrix(1.3333333,0,0,-1.3333333,251.2144,329.05347)"
       clip-path="url(#clipPath195)" />
    <path
       id="path196"
       d="m 0,0 h -1.377 v 9.343 h -1.83 C -3.207,9.21 -3.245,9.046 -3.318,8.889 -3.432,8.607 -3.573,8.325 -3.76,8.027 -4.05,7.734 -4.42,7.593 -4.855,7.432 H -5.324 V 5.838 h 1.678 V 0 H -5.289 V -1.907 H 0 Z"
       style="fill:#d9c659;fill-opacity:1;fill-rule:nonzero;stroke:none"
       transform="matrix(1.3333333,0,0,-1.3333333,227.89133,340.9064)"
       clip-path="url(#clipPath197)" />
    <path
       id="path198"
       d="M 0,0 C -1.491,0.145 -2.181,1.754 -2.158,1.895 -2.334,3.501 -0.442,8.329 0,10.655 0.419,8.329 2.361,3.356 2.044,1.895 2.074,1.754 1.499,0.145 0,0 M 39.721,-0.141 27.114,2.929 37.735,3.791 29.2,21.306 c -9.45,-2.784 -17.42,2.929 -20.486,3.36 -3.65,0.583 -5.766,-0.881 -8.558,-3.211 -2.574,2.78 -6.029,4.225 -9.614,3.211 -6.494,-1.308 -10.437,-5.255 -19.727,-3.062 l -8.26,-17.081 10.872,-1.754 -12.691,-1.896 -3.039,-5.991 37.7,4.977 c 0.881,-1.316 2.784,-2.929 4.759,-2.788 1.594,0.305 3.135,1.175 4.001,2.643 l 38.619,-5.122 z"
       style="fill:#d9c659;fill-opacity:1;fill-rule:nonzero;stroke:none"
       transform="matrix(1.3333333,0,0,-1.3333333,287.60693,383.92227)"
       clip-path="url(#clipPath199)" />
  </g>
</svg>
